<svg xmlns="http://www.w3.org/2000/svg" xmlns:xlink="http://www.w3.org/1999/xlink" width="50" zoomAndPan="magnify" viewBox="0 0 37.5 37.499999" height="50" preserveAspectRatio="xMidYMid meet" version="1.0"><defs><clipPath id="6b0f9f9176"><path d="M 0 0 L 37.007812 0 L 37.007812 37.007812 L 0 37.007812 Z M 0 0 " clip-rule="nonzero"/></clipPath></defs><g clip-path="url(#6b0f9f9176)"><path fill="#8201f2" d="M -0.734375 -0.738281 L 48.761719 -0.738281 C 47.074219 -0.738281 45.390625 -0.65625 43.710938 -0.484375 C 42.058594 -0.316406 40.421875 -0.0664062 38.796875 0.265625 C 37.199219 0.59375 35.605469 1.003906 34.050781 1.484375 C 32.515625 1.964844 30.984375 2.523438 29.503906 3.152344 C 26.550781 4.398438 23.75 5.921875 21.09375 7.714844 C 18.457031 9.496094 16.015625 11.511719 13.765625 13.761719 C 11.515625 16.011719 9.5 18.453125 7.71875 21.085938 C 5.925781 23.742188 4.40625 26.546875 3.15625 29.496094 C 2.527344 30.980469 1.96875 32.507812 1.492188 34.046875 C 1.007812 35.597656 0.597656 37.195312 0.269531 38.789062 C -0.0625 40.417969 -0.3125 42.054688 -0.480469 43.707031 C -0.648438 45.390625 -0.734375 47.074219 -0.734375 48.769531 Z M -0.734375 -0.738281 " fill-opacity="1" fill-rule="nonzero"/></g></svg>