<svg xmlns="http://www.w3.org/2000/svg" xmlns:xlink="http://www.w3.org/1999/xlink"
                width="3840" zoomAndPan="magnify" viewBox="0 0 2880 149.999998" height="200"
                preserveAspectRatio="xMidYMid meet" version="1.0">
                <defs>
                    <clipPath id="23713b3138">
                        <path
                            d="M 3091.285156 84.683594 L -1278.402344 621.210938 L -1403.164062 -394.90625 L 2966.519531 -931.4375 Z M 3091.285156 84.683594 "
                            clip-rule="nonzero" />
                    </clipPath>
                    <clipPath id="8b42cf3d27">
                        <path
                            d="M 3091.285156 84.683594 L -1278.402344 621.210938 L -1403.164062 -394.90625 L 2966.519531 -931.4375 Z M 3091.285156 84.683594 "
                            clip-rule="nonzero" />
                    </clipPath>
                </defs>
                <g clip-path="url(#23713b3138)">
                    <g clip-path="url(#8b42cf3d27)">
                        <path fill="#1b1b1b"
                            d="M -1128.25 551.199219 C -823.191406 405.902344 -604.832031 313.136719 -361.703125 226.078125 C -80.871094 125.328125 121.238281 73.320312 362.480469 39.636719 C 623.121094 3.570312 830.511719 -0.328125 1156.285156 25.628906 C 1287.601562 36.074219 1440.460938 51.375 1765.828125 86.757812 C 2088.65625 121.828125 2287.460938 137.117188 2409.183594 135.613281 C 2625.535156 133.429688 2839.984375 87.71875 3035.777344 2.097656 L 3072.292969 -13.636719 L 3016.644531 -471.929688 L 2961.269531 -930.566406 L 781.660156 -662.945312 L -1397.636719 -395.363281 L -1335.25 112.742188 C -1300.917969 392.351562 -1272.59375 620.5 -1272.324219 620.152344 C -1271.746094 619.769531 -1207.105469 588.703125 -1128.25 551.199219 Z M -1128.25 551.199219 "
                            fill-opacity="1" fill-rule="nonzero" />
                    </g>
                </g>
            </svg>