<svg xmlns="http://www.w3.org/2000/svg" xmlns:xlink="http://www.w3.org/1999/xlink" width="300" zoomAndPan="magnify" viewBox="0 0 224.87999 89.999999" height="120" preserveAspectRatio="xMidYMid meet" version="1.0"><defs><clipPath id="dd24e8e3c2"><path d="M 0 0.0234375 L 224.761719 0.0234375 L 224.761719 89.976562 L 0 89.976562 Z M 0 0.0234375 " clip-rule="nonzero"/></clipPath><clipPath id="834db8b5be"><path d="M 0 8 L 224.761719 8 L 224.761719 80 L 0 80 Z M 0 8 " clip-rule="nonzero"/></clipPath><clipPath id="5b7c46c55f"><path d="M -15.207031 3.648438 L 170.78125 -81.710938 L 249.886719 90.652344 L 63.898438 176.011719 Z M -15.207031 3.648438 " clip-rule="nonzero"/></clipPath><clipPath id="c4efa55f2f"><path d="M -15.207031 3.648438 L 170.78125 -81.710938 L 249.886719 90.652344 L 63.898438 176.011719 Z M -15.207031 3.648438 " clip-rule="nonzero"/></clipPath><clipPath id="0fc633ce56"><path d="M 0 7 L 224.761719 7 L 224.761719 82 L 0 82 Z M 0 7 " clip-rule="nonzero"/></clipPath><clipPath id="e9023d6a6d"><path d="M -15.207031 3.648438 L 170.78125 -81.710938 L 249.886719 90.652344 L 63.898438 176.011719 Z M -15.207031 3.648438 " clip-rule="nonzero"/></clipPath><clipPath id="de0da64399"><path d="M -15.207031 3.648438 L 170.78125 -81.710938 L 249.886719 90.652344 L 63.898438 176.011719 Z M -15.207031 3.648438 " clip-rule="nonzero"/></clipPath><clipPath id="47692a3d4f"><path d="M 0 6 L 224.761719 6 L 224.761719 83 L 0 83 Z M 0 6 " clip-rule="nonzero"/></clipPath><clipPath id="021270ea40"><path d="M -15.207031 3.648438 L 170.78125 -81.710938 L 249.886719 90.652344 L 63.898438 176.011719 Z M -15.207031 3.648438 " clip-rule="nonzero"/></clipPath><clipPath id="64ca3ef875"><path d="M -15.207031 3.648438 L 170.78125 -81.710938 L 249.886719 90.652344 L 63.898438 176.011719 Z M -15.207031 3.648438 " clip-rule="nonzero"/></clipPath><clipPath id="76615bc637"><path d="M 0 6 L 224.761719 6 L 224.761719 84 L 0 84 Z M 0 6 " clip-rule="nonzero"/></clipPath><clipPath id="346c3b8bde"><path d="M -15.207031 3.648438 L 170.78125 -81.710938 L 249.886719 90.652344 L 63.898438 176.011719 Z M -15.207031 3.648438 " clip-rule="nonzero"/></clipPath><clipPath id="1d7d3b295e"><path d="M -15.207031 3.648438 L 170.78125 -81.710938 L 249.886719 90.652344 L 63.898438 176.011719 Z M -15.207031 3.648438 " clip-rule="nonzero"/></clipPath><clipPath id="0b79d28804"><path d="M 0 5 L 224.761719 5 L 224.761719 85 L 0 85 Z M 0 5 " clip-rule="nonzero"/></clipPath><clipPath id="7f89e2191e"><path d="M -15.207031 3.648438 L 170.78125 -81.710938 L 249.886719 90.652344 L 63.898438 176.011719 Z M -15.207031 3.648438 " clip-rule="nonzero"/></clipPath><clipPath id="1bc270eda6"><path d="M -15.207031 3.648438 L 170.78125 -81.710938 L 249.886719 90.652344 L 63.898438 176.011719 Z M -15.207031 3.648438 " clip-rule="nonzero"/></clipPath><clipPath id="8d81117db0"><path d="M 0 4 L 224.761719 4 L 224.761719 86 L 0 86 Z M 0 4 " clip-rule="nonzero"/></clipPath><clipPath id="efd80595bf"><path d="M -15.207031 3.648438 L 170.78125 -81.710938 L 249.886719 90.652344 L 63.898438 176.011719 Z M -15.207031 3.648438 " clip-rule="nonzero"/></clipPath><clipPath id="51fac804c9"><path d="M -15.207031 3.648438 L 170.78125 -81.710938 L 249.886719 90.652344 L 63.898438 176.011719 Z M -15.207031 3.648438 " clip-rule="nonzero"/></clipPath><clipPath id="30f808f83a"><path d="M 0 4 L 224.761719 4 L 224.761719 88 L 0 88 Z M 0 4 " clip-rule="nonzero"/></clipPath><clipPath id="b8bb7f9555"><path d="M -15.207031 3.648438 L 170.78125 -81.710938 L 249.886719 90.652344 L 63.898438 176.011719 Z M -15.207031 3.648438 " clip-rule="nonzero"/></clipPath><clipPath id="856d50cdb1"><path d="M -15.207031 3.648438 L 170.78125 -81.710938 L 249.886719 90.652344 L 63.898438 176.011719 Z M -15.207031 3.648438 " clip-rule="nonzero"/></clipPath><clipPath id="3e5892f20d"><path d="M 0 3 L 224.761719 3 L 224.761719 89 L 0 89 Z M 0 3 " clip-rule="nonzero"/></clipPath><clipPath id="d3cfe424fa"><path d="M -15.207031 3.648438 L 170.78125 -81.710938 L 249.886719 90.652344 L 63.898438 176.011719 Z M -15.207031 3.648438 " clip-rule="nonzero"/></clipPath><clipPath id="3d48641a48"><path d="M -15.207031 3.648438 L 170.78125 -81.710938 L 249.886719 90.652344 L 63.898438 176.011719 Z M -15.207031 3.648438 " clip-rule="nonzero"/></clipPath><clipPath id="529f709453"><path d="M 0 3 L 224.761719 3 L 224.761719 89.976562 L 0 89.976562 Z M 0 3 " clip-rule="nonzero"/></clipPath><clipPath id="b04c19ff2d"><path d="M -15.207031 3.648438 L 170.78125 -81.710938 L 249.886719 90.652344 L 63.898438 176.011719 Z M -15.207031 3.648438 " clip-rule="nonzero"/></clipPath><clipPath id="588cce3dbe"><path d="M -15.207031 3.648438 L 170.78125 -81.710938 L 249.886719 90.652344 L 63.898438 176.011719 Z M -15.207031 3.648438 " clip-rule="nonzero"/></clipPath><clipPath id="62fca33d3e"><path d="M 0 2 L 224.761719 2 L 224.761719 89.976562 L 0 89.976562 Z M 0 2 " clip-rule="nonzero"/></clipPath><clipPath id="4955c2f9e1"><path d="M -15.207031 3.648438 L 170.78125 -81.710938 L 249.886719 90.652344 L 63.898438 176.011719 Z M -15.207031 3.648438 " clip-rule="nonzero"/></clipPath><clipPath id="e8e152d7f5"><path d="M -15.207031 3.648438 L 170.78125 -81.710938 L 249.886719 90.652344 L 63.898438 176.011719 Z M -15.207031 3.648438 " clip-rule="nonzero"/></clipPath><clipPath id="fe19011750"><path d="M 0 1 L 224.761719 1 L 224.761719 89.976562 L 0 89.976562 Z M 0 1 " clip-rule="nonzero"/></clipPath><clipPath id="9e0bb3a609"><path d="M -15.207031 3.648438 L 170.78125 -81.710938 L 249.886719 90.652344 L 63.898438 176.011719 Z M -15.207031 3.648438 " clip-rule="nonzero"/></clipPath><clipPath id="0cf3c86f06"><path d="M -15.207031 3.648438 L 170.78125 -81.710938 L 249.886719 90.652344 L 63.898438 176.011719 Z M -15.207031 3.648438 " clip-rule="nonzero"/></clipPath><clipPath id="237362b220"><path d="M 0 0.0234375 L 224.761719 0.0234375 L 224.761719 89.976562 L 0 89.976562 Z M 0 0.0234375 " clip-rule="nonzero"/></clipPath><clipPath id="561ac2bf42"><path d="M -15.207031 3.648438 L 170.78125 -81.710938 L 249.886719 90.652344 L 63.898438 176.011719 Z M -15.207031 3.648438 " clip-rule="nonzero"/></clipPath><clipPath id="3374419345"><path d="M -15.207031 3.648438 L 170.78125 -81.710938 L 249.886719 90.652344 L 63.898438 176.011719 Z M -15.207031 3.648438 " clip-rule="nonzero"/></clipPath><clipPath id="6657746d76"><path d="M 0 0.0234375 L 224 0.0234375 L 224 89.976562 L 0 89.976562 Z M 0 0.0234375 " clip-rule="nonzero"/></clipPath><clipPath id="4cdf7b1cd7"><path d="M -15.207031 3.648438 L 170.78125 -81.710938 L 249.886719 90.652344 L 63.898438 176.011719 Z M -15.207031 3.648438 " clip-rule="nonzero"/></clipPath><clipPath id="cfb1696921"><path d="M -15.207031 3.648438 L 170.78125 -81.710938 L 249.886719 90.652344 L 63.898438 176.011719 Z M -15.207031 3.648438 " clip-rule="nonzero"/></clipPath><clipPath id="3c08087fc5"><path d="M 0 0.0234375 L 223 0.0234375 L 223 89.976562 L 0 89.976562 Z M 0 0.0234375 " clip-rule="nonzero"/></clipPath><clipPath id="952e67d67e"><path d="M -15.207031 3.648438 L 170.78125 -81.710938 L 249.886719 90.652344 L 63.898438 176.011719 Z M -15.207031 3.648438 " clip-rule="nonzero"/></clipPath><clipPath id="b6277f30ab"><path d="M -15.207031 3.648438 L 170.78125 -81.710938 L 249.886719 90.652344 L 63.898438 176.011719 Z M -15.207031 3.648438 " clip-rule="nonzero"/></clipPath><clipPath id="ef26d2dfe3"><path d="M 0 0.0234375 L 222 0.0234375 L 222 89.976562 L 0 89.976562 Z M 0 0.0234375 " clip-rule="nonzero"/></clipPath><clipPath id="4bce4b91d7"><path d="M -15.207031 3.648438 L 170.78125 -81.710938 L 249.886719 90.652344 L 63.898438 176.011719 Z M -15.207031 3.648438 " clip-rule="nonzero"/></clipPath><clipPath id="9b6de69fb9"><path d="M -15.207031 3.648438 L 170.78125 -81.710938 L 249.886719 90.652344 L 63.898438 176.011719 Z M -15.207031 3.648438 " clip-rule="nonzero"/></clipPath><clipPath id="0cd07b1b61"><path d="M 0 0.0234375 L 221 0.0234375 L 221 89.976562 L 0 89.976562 Z M 0 0.0234375 " clip-rule="nonzero"/></clipPath><clipPath id="a87c3eaa21"><path d="M -15.207031 3.648438 L 170.78125 -81.710938 L 249.886719 90.652344 L 63.898438 176.011719 Z M -15.207031 3.648438 " clip-rule="nonzero"/></clipPath><clipPath id="d2a7758fdc"><path d="M -15.207031 3.648438 L 170.78125 -81.710938 L 249.886719 90.652344 L 63.898438 176.011719 Z M -15.207031 3.648438 " clip-rule="nonzero"/></clipPath><clipPath id="97e348cb45"><path d="M 0 0.0234375 L 220 0.0234375 L 220 89.976562 L 0 89.976562 Z M 0 0.0234375 " clip-rule="nonzero"/></clipPath><clipPath id="fd54725bc2"><path d="M -15.207031 3.648438 L 170.78125 -81.710938 L 249.886719 90.652344 L 63.898438 176.011719 Z M -15.207031 3.648438 " clip-rule="nonzero"/></clipPath><clipPath id="3c832be2aa"><path d="M -15.207031 3.648438 L 170.78125 -81.710938 L 249.886719 90.652344 L 63.898438 176.011719 Z M -15.207031 3.648438 " clip-rule="nonzero"/></clipPath><clipPath id="ef24e651d6"><path d="M 0 0.0234375 L 219 0.0234375 L 219 89.976562 L 0 89.976562 Z M 0 0.0234375 " clip-rule="nonzero"/></clipPath><clipPath id="a3a5715c90"><path d="M -15.207031 3.648438 L 170.78125 -81.710938 L 249.886719 90.652344 L 63.898438 176.011719 Z M -15.207031 3.648438 " clip-rule="nonzero"/></clipPath><clipPath id="75a9ce3319"><path d="M -15.207031 3.648438 L 170.78125 -81.710938 L 249.886719 90.652344 L 63.898438 176.011719 Z M -15.207031 3.648438 " clip-rule="nonzero"/></clipPath></defs><g clip-path="url(#dd24e8e3c2)"><path fill="#ffffff" d="M 0 0.0234375 L 224.878906 0.0234375 L 224.878906 89.976562 L 0 89.976562 Z M 0 0.0234375 " fill-opacity="1" fill-rule="nonzero"/><path fill="#ffffff" d="M 0 0.0234375 L 224.878906 0.0234375 L 224.878906 89.976562 L 0 89.976562 Z M 0 0.0234375 " fill-opacity="1" fill-rule="nonzero"/></g><g clip-path="url(#834db8b5be)"><g clip-path="url(#5b7c46c55f)"><g clip-path="url(#c4efa55f2f)"><path fill="#ca94f8" d="M 222.632812 74.382812 C 217.550781 76.714844 210.722656 76.289062 207.433594 71.699219 C 206.226562 70.019531 205.628906 67.996094 205.046875 66.039062 C 204.5 64.195312 203.9375 62.289062 202.863281 60.6875 C 198.875 54.738281 189.511719 55.214844 183.269531 59.394531 C 179.800781 61.71875 176.914062 64.863281 174.125 67.902344 C 172.003906 70.210938 169.8125 72.601562 167.363281 74.632812 C 161.554688 79.453125 152.6875 81.960938 146.972656 77.421875 C 144.308594 75.304688 142.859375 72.105469 141.460938 69.015625 C 140.085938 65.980469 138.664062 62.839844 136.101562 60.769531 C 132.75 58.058594 128.082031 57.625 123.570312 57.199219 C 118.117188 56.6875 112.964844 56.207031 109.933594 52.046875 C 108.242188 49.722656 107.753906 46.75 107.277344 43.878906 C 106.710938 40.457031 106.175781 37.222656 103.796875 35.007812 C 99.160156 30.6875 91.582031 33.867188 86.039062 37.292969 L 59.335938 53.804688 C 52.8125 57.835938 45.925781 61.191406 39.699219 58.457031 C 34.84375 56.328125 31.589844 50.507812 31.003906 42.894531 C 30.835938 40.757812 30.832031 38.574219 30.828125 36.457031 C 30.820312 32.460938 30.8125 28.328125 29.707031 24.445312 C 27.492188 16.644531 20.65625 10.375 12.691406 8.851562 C 4.722656 7.324219 -3.949219 10.625 -8.886719 17.058594 L -9.136719 16.867188 C -4.128906 10.339844 4.667969 7 12.75 8.542969 C 20.828125 10.089844 27.765625 16.449219 30.011719 24.363281 C 31.125 28.285156 31.132812 32.4375 31.144531 36.457031 C 31.148438 38.566406 31.152344 40.75 31.316406 42.871094 C 31.898438 50.371094 35.078125 56.089844 39.824219 58.171875 C 45.917969 60.84375 52.726562 57.523438 59.171875 53.535156 L 85.875 37.027344 C 93.957031 32.03125 100.226562 31.25 104.011719 34.777344 C 106.472656 37.066406 107.039062 40.5 107.589844 43.828125 C 108.058594 46.667969 108.546875 49.601562 110.191406 51.863281 C 113.136719 55.90625 118.222656 56.382812 123.605469 56.890625 C 128.164062 57.316406 132.875 57.757812 136.304688 60.527344 C 138.925781 62.648438 140.363281 65.820312 141.753906 68.886719 C 143.140625 71.945312 144.574219 75.109375 147.179688 77.179688 C 152.761719 81.613281 161.464844 79.132812 167.171875 74.394531 C 169.605469 72.375 171.789062 69.996094 173.902344 67.691406 C 176.707031 64.640625 179.605469 61.480469 183.105469 59.140625 C 189.472656 54.875 199.042969 54.414062 203.136719 60.519531 C 204.234375 62.15625 204.804688 64.085938 205.359375 65.957031 C 205.929688 67.886719 206.519531 69.882812 207.695312 71.523438 C 211.226562 76.453125 218.984375 76.417969 224.007812 73.304688 C 229.285156 70.027344 232.503906 64.324219 235.34375 59.289062 L 235.617188 59.445312 C 232.757812 64.511719 229.515625 70.25 224.171875 73.570312 C 223.6875 73.871094 223.175781 74.144531 222.644531 74.386719 Z M 222.632812 74.382812 " fill-opacity="1" fill-rule="nonzero"/></g></g></g><g clip-path="url(#0fc633ce56)"><g clip-path="url(#e9023d6a6d)"><g clip-path="url(#de0da64399)"><path fill="#ca94f8" d="M 221.988281 75.570312 C 216.984375 77.863281 210.132812 77.617188 206.671875 73.066406 C 205.449219 71.464844 204.808594 69.539062 204.183594 67.675781 C 203.59375 65.914062 202.988281 64.097656 201.898438 62.582031 C 197.871094 56.964844 188.597656 57.457031 182.46875 61.445312 C 181.777344 61.890625 181.074219 62.398438 180.378906 62.941406 C 177.84375 64.921875 175.5625 67.304688 173.359375 69.609375 C 171.222656 71.847656 169.003906 74.160156 166.550781 76.121094 C 160.949219 80.585938 152.246094 83.277344 146.371094 78.648438 C 143.617188 76.488281 142.125 73.195312 140.683594 70.011719 C 139.34375 67.054688 137.957031 63.996094 135.570312 61.90625 C 134.382812 60.871094 132.964844 60.066406 131.246094 59.453125 C 128.890625 58.613281 126.269531 58.230469 123.730469 57.863281 C 118.597656 57.117188 113.742188 56.417969 110.90625 52.195312 C 110.496094 51.585938 110.148438 50.921875 109.847656 50.167969 C 109.09375 48.289062 108.757812 46.164062 108.4375 44.109375 C 107.886719 40.625 107.367188 37.339844 105.011719 35.046875 C 102.980469 33.070312 100.1875 32.375 96.707031 32.96875 C 94.003906 33.421875 90.867188 34.65625 87.375 36.648438 C 85.625 37.648438 83.878906 38.65625 82.183594 39.648438 C 77.402344 42.445312 72.496094 45.390625 68.171875 47.988281 L 60.402344 52.65625 C 55.800781 55.417969 50.871094 58.007812 46 58.246094 C 44.085938 58.339844 42.292969 58.042969 40.675781 57.363281 C 39.65625 56.933594 38.710938 56.355469 37.867188 55.636719 C 35.476562 53.605469 33.785156 50.429688 32.839844 46.207031 C 32.519531 44.777344 32.296875 43.269531 32.171875 41.730469 C 32.015625 39.796875 31.96875 37.824219 31.925781 35.914062 C 31.828125 31.734375 31.730469 27.40625 30.449219 23.386719 C 29.214844 19.484375 26.71875 15.824219 23.417969 13.078125 C 20.382812 10.554688 16.808594 8.867188 13.082031 8.191406 C 5.167969 6.761719 -3.578125 9.984375 -8.679688 16.210938 L -8.921875 16.011719 C -3.75 9.699219 5.117188 6.433594 13.140625 7.882812 C 16.917969 8.566406 20.542969 10.277344 23.617188 12.835938 C 26.960938 15.621094 29.496094 19.332031 30.746094 23.289062 C 32.039062 27.351562 32.136719 31.703125 32.234375 35.90625 C 32.277344 37.808594 32.324219 39.777344 32.480469 41.699219 C 32.601562 43.222656 32.824219 44.714844 33.140625 46.132812 C 34.070312 50.292969 35.726562 53.40625 38.066406 55.394531 C 38.886719 56.089844 39.804688 56.652344 40.792969 57.070312 C 42.367188 57.730469 44.113281 58.023438 45.984375 57.929688 C 50.78125 57.695312 55.671875 55.128906 60.238281 52.386719 L 68.007812 47.71875 C 72.335938 45.121094 77.238281 42.175781 82.027344 39.378906 C 83.71875 38.386719 85.46875 37.375 87.214844 36.375 C 90.738281 34.367188 93.917969 33.117188 96.652344 32.65625 C 100.238281 32.046875 103.121094 32.773438 105.230469 34.820312 C 107.660156 37.183594 108.210938 40.679688 108.746094 44.058594 C 109.066406 46.097656 109.398438 48.203125 110.140625 50.050781 C 110.433594 50.785156 110.773438 51.429688 111.167969 52.019531 C 113.929688 56.125 118.714844 56.820312 123.777344 57.550781 C 126.328125 57.921875 128.96875 58.304688 131.351562 59.160156 C 133.113281 59.785156 134.558594 60.609375 135.777344 61.671875 C 138.21875 63.804688 139.617188 66.894531 140.972656 69.882812 C 142.398438 73.027344 143.875 76.289062 146.566406 78.402344 C 152.308594 82.929688 160.851562 80.265625 166.359375 75.875 C 168.796875 73.925781 171.003906 71.621094 173.136719 69.390625 C 175.351562 67.078125 177.636719 64.6875 180.1875 62.695312 C 180.890625 62.144531 181.601562 61.632812 182.296875 61.179688 C 188.550781 57.117188 198.023438 56.632812 202.152344 62.394531 C 203.273438 63.953125 203.886719 65.792969 204.480469 67.570312 C 205.097656 69.410156 205.730469 71.3125 206.921875 72.875 C 210.582031 77.679688 218.167969 77.53125 223.097656 74.636719 C 228.3125 71.566406 231.613281 66.191406 234.523438 61.445312 L 234.792969 61.605469 C 231.863281 66.386719 228.539062 71.800781 223.253906 74.90625 C 222.847656 75.140625 222.425781 75.363281 221.988281 75.5625 Z M 221.988281 75.570312 " fill-opacity="1" fill-rule="nonzero"/></g></g></g><g clip-path="url(#47692a3d4f)"><g clip-path="url(#021270ea40)"><g clip-path="url(#64ca3ef875)"><path fill="#ca94f8" d="M 221.410156 76.730469 C 216.460938 79.003906 209.460938 78.808594 205.917969 74.433594 C 204.683594 72.910156 203.992188 71.082031 203.320312 69.3125 C 202.6875 67.640625 202.039062 65.914062 200.929688 64.472656 C 196.738281 59.011719 187.664062 59.710938 181.667969 63.496094 C 180.976562 63.929688 180.277344 64.417969 179.585938 64.9375 C 177.078125 66.832031 174.800781 69.109375 172.601562 71.3125 C 170.4375 73.480469 168.199219 75.71875 165.738281 77.605469 C 160.160156 81.859375 151.535156 84.386719 145.761719 79.878906 C 142.914062 77.660156 141.378906 74.269531 139.890625 70.984375 C 138.589844 68.113281 137.25 65.144531 135.039062 63.046875 C 133.902344 61.976562 132.5625 61.125 130.933594 60.445312 C 128.722656 59.511719 126.269531 59.015625 123.898438 58.535156 C 119.078125 57.558594 114.527344 56.632812 111.875 52.347656 C 111.492188 51.730469 111.171875 51.0625 110.894531 50.300781 C 110.210938 48.453125 109.898438 46.375 109.59375 44.359375 C 109.085938 40.972656 108.558594 37.464844 106.226562 35.09375 C 104.25 33.09375 101.503906 32.296875 98.0625 32.730469 C 95.363281 33.070312 92.21875 34.171875 88.707031 36.007812 C 86.957031 36.933594 85.1875 37.882812 83.457031 38.835938 C 78.640625 41.492188 73.679688 44.382812 69.300781 46.9375 L 61.457031 51.511719 C 56.816406 54.214844 51.855469 56.757812 46.988281 57.058594 C 45.046875 57.175781 43.246094 56.910156 41.644531 56.261719 C 40.609375 55.847656 39.652344 55.273438 38.8125 54.558594 C 36.460938 52.5625 34.875 49.449219 33.96875 45.046875 C 33.675781 43.609375 33.464844 42.101562 33.335938 40.554688 C 33.195312 38.859375 33.117188 37.132812 33.050781 35.460938 C 32.863281 31.058594 32.667969 26.503906 31.191406 22.320312 C 29.84375 18.472656 27.257812 14.890625 23.910156 12.230469 C 20.828125 9.789062 17.222656 8.164062 13.480469 7.523438 C 5.5 6.164062 -3.117188 9.238281 -8.472656 15.351562 L -8.710938 15.144531 C -3.289062 8.953125 5.441406 5.839844 13.53125 7.214844 C 17.324219 7.859375 20.980469 9.507812 24.101562 11.984375 C 27.496094 14.679688 30.121094 18.316406 31.488281 22.214844 C 32.980469 26.441406 33.175781 31.019531 33.363281 35.449219 C 33.4375 37.117188 33.507812 38.839844 33.648438 40.527344 C 33.777344 42.058594 33.988281 43.5625 34.28125 44.980469 C 35.171875 49.3125 36.722656 52.367188 39.019531 54.320312 C 39.835938 55.011719 40.757812 55.566406 41.765625 55.96875 C 43.328125 56.59375 45.082031 56.859375 46.972656 56.742188 C 51.773438 56.441406 56.699219 53.917969 61.300781 51.234375 L 69.144531 46.664062 C 73.523438 44.109375 78.488281 41.21875 83.308594 38.558594 C 85.039062 37.601562 86.804688 36.648438 88.566406 35.722656 C 92.105469 33.871094 95.289062 32.757812 98.023438 32.414062 C 101.566406 31.96875 104.398438 32.792969 106.449219 34.867188 C 108.851562 37.308594 109.386719 40.867188 109.90625 44.308594 C 110.203125 46.304688 110.511719 48.367188 111.1875 50.1875 C 111.460938 50.929688 111.773438 51.578125 112.144531 52.175781 C 114.722656 56.347656 119.210938 57.257812 123.960938 58.222656 C 126.347656 58.707031 128.816406 59.207031 131.058594 60.148438 C 132.71875 60.847656 134.09375 61.71875 135.253906 62.816406 C 137.511719 64.957031 138.867188 67.953125 140.179688 70.851562 C 141.648438 74.101562 143.167969 77.457031 145.960938 79.628906 C 151.597656 84.035156 160.070312 81.539062 165.550781 77.351562 C 167.996094 75.476562 170.226562 73.246094 172.382812 71.085938 C 174.589844 68.875 176.875 66.589844 179.402344 64.679688 C 180.101562 64.152344 180.808594 63.664062 181.503906 63.222656 C 187.621094 59.367188 196.882812 58.671875 201.183594 64.273438 C 202.320312 65.75 202.980469 67.503906 203.621094 69.191406 C 204.28125 70.9375 204.960938 72.742188 206.167969 74.226562 C 209.839844 78.761719 217.351562 78.660156 222.203125 75.972656 C 227.359375 73.117188 230.742188 68.0625 233.722656 63.605469 L 233.984375 63.78125 C 230.980469 68.265625 227.574219 73.355469 222.351562 76.25 C 222.050781 76.417969 221.734375 76.574219 221.414062 76.722656 Z M 221.410156 76.730469 " fill-opacity="1" fill-rule="nonzero"/></g></g></g><g clip-path="url(#76615bc637)"><g clip-path="url(#346c3b8bde)"><g clip-path="url(#1d7d3b295e)"><path fill="#ca94f8" d="M 220.800781 77.917969 C 215.828125 80.199219 208.832031 80.054688 205.160156 75.800781 C 203.910156 74.351562 203.171875 72.625 202.460938 70.949219 C 201.789062 69.367188 201.09375 67.730469 199.96875 66.367188 C 195.734375 61.238281 186.757812 61.945312 180.867188 65.542969 C 180.183594 65.960938 179.484375 66.429688 178.796875 66.933594 C 176.316406 68.742188 174.042969 70.917969 171.851562 73.015625 C 169.664062 75.109375 167.402344 77.273438 164.925781 79.089844 C 159.203125 83.269531 150.871094 85.511719 145.164062 81.109375 C 142.210938 78.832031 140.628906 75.328125 139.101562 71.941406 C 137.847656 69.160156 136.546875 66.285156 134.507812 64.191406 C 133.429688 63.085938 132.160156 62.183594 130.628906 61.433594 C 128.558594 60.410156 126.28125 59.800781 124.074219 59.207031 C 119.574219 57.996094 115.316406 56.851562 112.851562 52.496094 C 112.5 51.875 112.203125 51.199219 111.941406 50.433594 C 111.328125 48.617188 111.035156 46.585938 110.757812 44.621094 C 110.265625 41.164062 109.757812 37.585938 107.449219 35.136719 C 105.492188 33.070312 102.871094 32.199219 99.429688 32.484375 C 96.714844 32.707031 93.558594 33.671875 90.054688 35.355469 C 88.398438 36.152344 86.660156 37.023438 84.75 38.015625 C 79.878906 40.542969 75.085938 43.253906 70.449219 45.878906 L 62.53125 50.359375 C 57.859375 53 52.859375 55.496094 47.996094 55.863281 C 46.035156 56.007812 44.230469 55.769531 42.632812 55.160156 C 41.578125 54.757812 40.617188 54.191406 39.78125 53.480469 C 37.464844 51.507812 35.984375 48.460938 35.121094 43.886719 C 34.851562 42.449219 34.648438 40.933594 34.515625 39.382812 C 34.390625 37.964844 34.304688 36.523438 34.222656 35.136719 C 33.929688 30.25 33.652344 25.632812 31.945312 21.253906 C 30.484375 17.464844 27.808594 13.960938 24.410156 11.386719 C 21.277344 9.027344 17.640625 7.460938 13.886719 6.863281 C 5.953125 5.597656 -2.734375 8.59375 -8.257812 14.5 L -8.488281 14.285156 C -2.894531 8.304688 5.902344 5.269531 13.9375 6.550781 C 17.742188 7.15625 21.429688 8.742188 24.601562 11.136719 C 28.042969 13.742188 30.757812 17.292969 32.238281 21.136719 C 33.957031 25.5625 34.25 30.417969 34.53125 35.117188 C 34.617188 36.507812 34.703125 37.941406 34.828125 39.355469 C 34.960938 40.894531 35.160156 42.402344 35.429688 43.828125 C 36.277344 48.328125 37.722656 51.320312 39.980469 53.238281 C 40.789062 53.929688 41.722656 54.476562 42.742188 54.867188 C 44.296875 55.464844 46.054688 55.695312 47.972656 55.554688 C 52.777344 55.1875 57.734375 52.710938 62.378906 50.089844 L 70.292969 45.609375 C 74.933594 42.988281 79.730469 40.273438 84.605469 37.742188 C 86.519531 36.746094 88.257812 35.875 89.921875 35.078125 C 93.460938 33.378906 96.652344 32.402344 99.40625 32.171875 C 102.898438 31.886719 105.679688 32.808594 107.679688 34.921875 C 110.058594 37.445312 110.574219 41.070312 111.070312 44.578125 C 111.347656 46.527344 111.636719 48.542969 112.242188 50.328125 C 112.492188 51.074219 112.785156 51.734375 113.128906 52.335938 C 115.527344 56.582031 119.722656 57.707031 124.160156 58.898438 C 126.382812 59.496094 128.675781 60.113281 130.773438 61.148438 C 132.335938 61.914062 133.636719 62.835938 134.738281 63.964844 C 136.816406 66.097656 138.125 69 139.390625 71.804688 C 140.90625 75.15625 142.46875 78.625 145.359375 80.851562 C 150.941406 85.160156 159.121094 82.941406 164.746094 78.832031 C 167.207031 77.027344 169.460938 74.871094 171.640625 72.78125 C 173.84375 70.675781 176.121094 68.496094 178.617188 66.671875 C 179.316406 66.160156 180.019531 65.691406 180.710938 65.269531 C 186.710938 61.601562 195.878906 60.898438 200.214844 66.15625 C 201.371094 67.554688 202.078125 69.214844 202.757812 70.820312 C 203.460938 72.46875 204.1875 74.179688 205.40625 75.585938 C 209.140625 79.910156 216.425781 79.851562 221.308594 77.316406 C 226.398438 74.671875 229.859375 69.941406 232.917969 65.769531 L 233.171875 65.953125 C 230.09375 70.15625 226.605469 74.914062 221.453125 77.59375 C 221.242188 77.703125 221.03125 77.808594 220.808594 77.910156 Z M 220.800781 77.917969 " fill-opacity="1" fill-rule="nonzero"/></g></g></g><g clip-path="url(#0b79d28804)"><g clip-path="url(#7f89e2191e)"><g clip-path="url(#1bc270eda6)"><path fill="#ca94f8" d="M 220.238281 79.089844 C 215.398438 81.3125 208.3125 81.398438 204.402344 77.167969 C 203.136719 75.800781 202.355469 74.167969 201.601562 72.589844 C 200.886719 71.09375 200.144531 69.542969 199 68.257812 C 194.675781 63.394531 185.976562 64.105469 180.0625 67.597656 C 179.382812 68 178.6875 68.449219 178.003906 68.933594 C 175.550781 70.65625 173.289062 72.726562 171.097656 74.726562 C 168.886719 76.746094 166.601562 78.835938 164.109375 80.582031 C 158.417969 84.546875 150.164062 86.632812 144.550781 82.34375 C 141.496094 80.007812 139.867188 76.386719 138.296875 72.878906 C 137.09375 70.195312 135.847656 67.421875 133.976562 65.339844 C 132.96875 64.214844 131.769531 63.265625 130.316406 62.433594 C 128.398438 61.335938 126.300781 60.613281 124.277344 59.914062 C 120.074219 58.464844 116.105469 57.101562 113.820312 52.660156 C 113.496094 52.03125 113.21875 51.351562 112.984375 50.578125 C 112.433594 48.804688 112.167969 46.828125 111.914062 44.917969 C 111.4375 41.386719 110.949219 37.734375 108.660156 35.195312 C 106.75 33.089844 104.179688 32.128906 100.785156 32.257812 C 98.070312 32.363281 94.90625 33.191406 91.386719 34.730469 C 89.703125 35.464844 87.949219 36.277344 86.019531 37.21875 C 81.097656 39.621094 76.257812 42.277344 71.578125 44.84375 L 63.589844 49.230469 C 58.882812 51.8125 53.847656 54.257812 48.988281 54.691406 C 46.972656 54.867188 45.214844 54.664062 43.605469 54.074219 C 42.53125 53.6875 41.566406 53.128906 40.726562 52.417969 C 37.804688 49.929688 36.804688 45.941406 36.253906 42.742188 C 36.011719 41.304688 35.820312 39.785156 35.679688 38.226562 C 35.582031 37.140625 35.503906 36.039062 35.421875 34.976562 C 35.027344 29.75 34.65625 24.816406 32.691406 20.203125 C 31.117188 16.46875 28.347656 13.042969 24.902344 10.554688 C 21.726562 8.273438 18.054688 6.769531 14.28125 6.210938 C 6.410156 5.035156 -2.355469 7.960938 -8.050781 13.65625 L -8.273438 13.433594 C -2.511719 7.667969 6.359375 4.710938 14.328125 5.898438 C 18.148438 6.46875 21.867188 7.992188 25.082031 10.300781 C 28.574219 12.820312 31.378906 16.292969 32.976562 20.078125 C 34.964844 24.738281 35.351562 29.933594 35.730469 34.953125 C 35.8125 36.015625 35.890625 37.113281 35.992188 38.195312 C 36.132812 39.746094 36.324219 41.261719 36.566406 42.6875 C 37.105469 45.832031 38.089844 49.757812 40.933594 52.179688 C 41.742188 52.867188 42.675781 53.402344 43.710938 53.78125 C 45.273438 54.355469 46.992188 54.550781 48.957031 54.382812 C 53.765625 53.953125 58.757812 51.519531 63.441406 48.953125 L 71.425781 44.570312 C 76.109375 42 80.953125 39.339844 85.882812 36.9375 C 87.816406 35.996094 89.574219 35.179688 91.261719 34.441406 C 94.820312 32.890625 98.019531 32.050781 100.773438 31.945312 C 104.265625 31.8125 106.921875 32.804688 108.894531 34.984375 C 111.25 37.597656 111.746094 41.296875 112.226562 44.875 C 112.480469 46.773438 112.746094 48.734375 113.289062 50.484375 C 113.519531 51.238281 113.785156 51.902344 114.101562 52.511719 C 116.328125 56.839844 120.242188 58.191406 124.382812 59.617188 C 126.425781 60.320312 128.53125 61.046875 130.476562 62.160156 C 131.960938 63.007812 133.183594 63.980469 134.21875 65.128906 C 136.121094 67.246094 137.375 70.046875 138.589844 72.75 C 140.148438 76.21875 141.757812 79.808594 144.75 82.09375 C 150.238281 86.289062 158.34375 84.226562 163.941406 80.328125 C 166.414062 78.589844 168.691406 76.511719 170.898438 74.492188 C 173.09375 72.488281 175.359375 70.417969 177.828125 68.675781 C 178.523438 68.1875 179.226562 67.734375 179.910156 67.328125 C 185.9375 63.769531 194.808594 63.066406 199.242188 68.050781 C 200.417969 69.371094 201.167969 70.9375 201.890625 72.457031 C 202.640625 74.015625 203.410156 75.625 204.640625 76.957031 C 208.386719 81.011719 215.601562 81.015625 220.40625 78.671875 C 225.421875 76.234375 228.816406 72.03125 232.09375 67.964844 L 232.230469 68.039062 L 232.355469 68.140625 C 229.035156 72.253906 225.621094 76.484375 220.542969 78.953125 C 220.445312 79 220.34375 79.046875 220.246094 79.09375 Z M 220.238281 79.089844 " fill-opacity="1" fill-rule="nonzero"/></g></g></g><g clip-path="url(#8d81117db0)"><g clip-path="url(#efd80595bf)"><g clip-path="url(#51fac804c9)"><path fill="#ca94f8" d="M 219.753906 80.238281 C 219.714844 80.257812 219.671875 80.277344 219.628906 80.296875 C 214.863281 82.449219 207.640625 82.5625 203.644531 78.53125 C 202.367188 77.246094 201.542969 75.710938 200.746094 74.226562 C 199.988281 72.816406 199.203125 71.359375 198.035156 70.148438 C 193.671875 65.613281 185.0625 66.328125 179.261719 69.640625 C 178.585938 70.027344 177.894531 70.457031 177.207031 70.921875 C 174.785156 72.5625 172.535156 74.523438 170.355469 76.421875 C 168.117188 78.371094 165.800781 80.390625 163.296875 82.066406 C 158.050781 85.546875 149.835938 88.023438 143.949219 83.566406 C 140.765625 81.160156 139.09375 77.402344 137.476562 73.765625 C 136.277344 71.070312 135.144531 68.527344 133.445312 66.472656 C 132.496094 65.320312 131.367188 64.320312 130.003906 63.414062 C 128.234375 62.238281 126.320312 61.410156 124.46875 60.605469 C 120.570312 58.917969 116.894531 57.324219 114.789062 52.800781 C 114.496094 52.164062 114.246094 51.476562 114.027344 50.703125 C 113.542969 48.976562 113.300781 47.066406 113.070312 45.214844 C 112.613281 41.605469 112.144531 37.867188 109.871094 35.238281 C 108.011719 33.089844 105.480469 32.035156 102.140625 32.011719 C 99.425781 31.996094 96.257812 32.691406 92.71875 34.078125 C 91.011719 34.75 89.238281 35.507812 87.296875 36.398438 C 82.308594 38.664062 77.4375 41.273438 72.710938 43.785156 L 64.648438 48.078125 C 60.226562 50.425781 55.082031 52.976562 49.976562 53.5 C 47.949219 53.703125 46.183594 53.53125 44.574219 52.972656 C 43.484375 52.59375 42.507812 52.046875 41.679688 51.339844 C 38.855469 48.933594 37.929688 45.058594 37.394531 41.582031 C 37.175781 40.148438 36.992188 38.625 36.847656 37.054688 C 36.785156 36.371094 36.726562 35.691406 36.667969 35.007812 C 36.175781 29.367188 35.710938 24.039062 33.4375 19.136719 C 31.75 15.457031 28.890625 12.113281 25.398438 9.710938 C 22.179688 7.511719 18.472656 6.074219 14.6875 5.546875 C 6.753906 4.445312 -1.875 7.226562 -7.835938 12.808594 L -8.050781 12.578125 C -2.023438 6.9375 6.703125 4.125 14.726562 5.234375 C 18.5625 5.765625 22.316406 7.226562 25.574219 9.453125 C 29.167969 11.921875 31.984375 15.222656 33.722656 19.003906 C 36.019531 23.953125 36.511719 29.558594 36.980469 34.980469 C 37.042969 35.660156 37.101562 36.34375 37.164062 37.023438 C 37.3125 38.589844 37.492188 40.105469 37.710938 41.53125 C 38.234375 44.949219 39.140625 48.757812 41.886719 51.097656 C 42.6875 51.78125 43.628906 52.308594 44.6875 52.675781 C 46.25 53.214844 47.972656 53.382812 49.953125 53.1875 C 55 52.671875 60.113281 50.132812 64.511719 47.796875 L 72.574219 43.507812 C 77.304688 40.992188 82.183594 38.382812 87.179688 36.113281 C 89.125 35.21875 90.90625 34.460938 92.621094 33.785156 C 96.195312 32.378906 99.402344 31.679688 102.15625 31.699219 C 105.59375 31.722656 108.203125 32.8125 110.125 35.03125 C 112.460938 37.734375 112.9375 41.515625 113.398438 45.175781 C 113.632812 47.015625 113.871094 48.917969 114.34375 50.621094 C 114.554688 51.378906 114.800781 52.050781 115.089844 52.667969 C 117.140625 57.085938 120.769531 58.65625 124.609375 60.320312 C 126.476562 61.128906 128.402344 61.964844 130.195312 63.152344 C 131.585938 64.078125 132.734375 65.097656 133.707031 66.273438 C 135.429688 68.363281 136.625 71.046875 137.777344 73.636719 C 139.382812 77.238281 141.039062 80.960938 144.15625 83.320312 C 149.914062 87.675781 157.980469 85.230469 163.140625 81.808594 C 165.628906 80.140625 167.9375 78.132812 170.167969 76.191406 C 172.351562 74.289062 174.613281 72.324219 177.050781 70.667969 C 177.742188 70.199219 178.441406 69.765625 179.125 69.375 C 185.03125 66.007812 193.8125 65.292969 198.277344 69.9375 C 199.472656 71.179688 200.269531 72.65625 201.035156 74.085938 C 201.820312 75.550781 202.636719 77.0625 203.882812 78.316406 C 207.777344 82.25 214.84375 82.125 219.511719 80.015625 C 219.554688 79.996094 219.59375 79.976562 219.636719 79.957031 C 224.503906 77.722656 227.90625 73.914062 231.195312 70.226562 L 231.304688 70.105469 L 231.539062 70.316406 L 231.429688 70.4375 C 228.117188 74.144531 224.695312 77.980469 219.769531 80.242188 Z M 219.753906 80.238281 " fill-opacity="1" fill-rule="nonzero"/></g></g></g><g clip-path="url(#30f808f83a)"><g clip-path="url(#b8bb7f9555)"><g clip-path="url(#856d50cdb1)"><path fill="#ca94f8" d="M 219.46875 81.316406 C 219.222656 81.425781 218.972656 81.535156 218.71875 81.640625 C 213.914062 83.640625 206.933594 83.6875 202.890625 79.898438 C 201.601562 78.691406 200.730469 77.253906 199.890625 75.867188 C 199.089844 74.539062 198.253906 73.167969 197.070312 72.035156 C 192.507812 67.671875 184.078125 68.597656 178.460938 71.6875 C 177.789062 72.058594 177.097656 72.472656 176.414062 72.917969 C 174.039062 74.46875 171.808594 76.316406 169.652344 78.101562 C 167.375 79.988281 165.019531 81.941406 162.480469 83.550781 C 157.277344 86.839844 149.148438 89.144531 143.34375 84.792969 C 140.03125 82.308594 138.304688 78.394531 136.640625 74.613281 C 135.511719 72.046875 134.441406 69.625 132.917969 67.609375 C 132.023438 66.429688 130.972656 65.378906 129.699219 64.398438 C 128.082031 63.152344 126.347656 62.222656 124.675781 61.324219 C 121.082031 59.390625 117.6875 57.5625 115.765625 52.949219 C 115.496094 52.304688 115.269531 51.617188 115.078125 50.832031 C 114.660156 49.160156 114.441406 47.320312 114.234375 45.535156 C 113.796875 41.835938 113.351562 38.007812 111.09375 35.277344 C 109.277344 33.085938 106.796875 31.9375 103.503906 31.765625 C 100.792969 31.625 97.617188 32.183594 94.0625 33.433594 C 92.332031 34.039062 90.539062 34.742188 88.582031 35.582031 C 83.5625 37.722656 78.621094 40.269531 73.851562 42.730469 L 65.71875 46.925781 C 61.265625 49.21875 56.082031 51.71875 50.976562 52.304688 C 48.929688 52.535156 47.152344 52.390625 45.558594 51.867188 C 44.449219 51.503906 43.46875 50.960938 42.636719 50.253906 C 39.898438 47.917969 39.046875 44.144531 38.535156 40.417969 C 38.34375 38.992188 38.171875 37.464844 38.023438 35.875 L 37.972656 35.390625 C 37.386719 29.195312 36.832031 23.347656 34.183594 18.0625 C 32.335938 14.375 29.46875 11.191406 25.890625 8.855469 C 22.625 6.734375 18.886719 5.359375 15.078125 4.871094 C 7.210938 3.859375 -1.492188 6.566406 -7.632812 11.941406 L -7.835938 11.703125 C -1.632812 6.273438 7.164062 3.535156 15.117188 4.558594 C 18.972656 5.050781 22.753906 6.445312 26.058594 8.59375 C 29.683594 10.957031 32.589844 14.183594 34.460938 17.921875 C 37.132812 23.257812 37.71875 29.410156 38.28125 35.359375 L 38.328125 35.84375 C 38.480469 37.429688 38.652344 38.953125 38.84375 40.375 C 39.347656 44.039062 40.175781 47.746094 42.835938 50.011719 C 43.636719 50.691406 44.578125 51.214844 45.652344 51.566406 C 47.203125 52.078125 48.933594 52.21875 50.9375 51.992188 C 55.988281 51.410156 61.140625 48.925781 65.570312 46.648438 L 73.703125 42.453125 C 78.484375 39.988281 83.421875 37.441406 88.457031 35.292969 C 90.421875 34.449219 92.222656 33.746094 93.957031 33.136719 C 97.550781 31.875 100.765625 31.308594 103.519531 31.453125 C 106.902344 31.632812 109.457031 32.816406 111.335938 35.078125 C 113.648438 37.882812 114.105469 41.753906 114.542969 45.5 C 114.753906 47.273438 114.964844 49.101562 115.378906 50.753906 C 115.574219 51.523438 115.789062 52.199219 116.054688 52.828125 C 117.933594 57.339844 121.28125 59.140625 124.828125 61.046875 C 126.511719 61.953125 128.253906 62.890625 129.890625 64.148438 C 131.1875 65.148438 132.261719 66.21875 133.167969 67.421875 C 134.71875 69.464844 135.84375 72.019531 136.925781 74.488281 C 138.578125 78.234375 140.285156 82.109375 143.535156 84.542969 C 149.210938 88.800781 157.199219 86.527344 162.316406 83.285156 C 164.839844 81.691406 167.1875 79.742188 169.457031 77.859375 C 171.617188 76.066406 173.851562 74.214844 176.246094 72.65625 C 176.9375 72.207031 177.632812 71.789062 178.3125 71.417969 C 184.03125 68.277344 192.621094 67.347656 197.289062 71.816406 C 198.503906 72.976562 199.347656 74.367188 200.160156 75.707031 C 200.988281 77.078125 201.84375 78.492188 203.105469 79.667969 C 207.054688 83.367188 213.890625 83.320312 218.601562 81.351562 C 223.460938 79.335938 226.914062 75.859375 230.265625 72.492188 L 230.488281 72.265625 L 230.710938 72.484375 L 230.488281 72.710938 C 227.289062 75.921875 223.988281 79.238281 219.46875 81.3125 Z M 219.46875 81.316406 " fill-opacity="1" fill-rule="nonzero"/></g></g></g><g clip-path="url(#3e5892f20d)"><g clip-path="url(#d3cfe424fa)"><g clip-path="url(#3d48641a48)"><path fill="#ca94f8" d="M 219.289062 82.371094 C 218.808594 82.589844 218.320312 82.796875 217.8125 82.988281 C 213.085938 84.789062 206.183594 84.773438 202.136719 81.265625 C 200.835938 80.136719 199.921875 78.804688 199.042969 77.515625 C 198.195312 76.277344 197.316406 74.992188 196.105469 73.929688 C 191.460938 69.855469 183.304688 70.75 177.660156 73.738281 C 176.996094 74.089844 176.308594 74.488281 175.625 74.910156 C 173.285156 76.375 171.074219 78.113281 168.933594 79.796875 C 166.625 81.617188 164.234375 83.496094 161.671875 85.035156 C 156.253906 88.285156 148.441406 90.25 142.742188 86.023438 C 139.277344 83.449219 137.503906 79.367188 135.789062 75.417969 C 134.738281 72.996094 133.746094 70.703125 132.390625 68.746094 C 131.558594 67.546875 130.574219 66.445312 129.390625 65.382812 C 127.933594 64.078125 126.386719 63.054688 124.894531 62.066406 C 121.597656 59.882812 118.480469 57.820312 116.738281 53.097656 C 116.5 52.453125 116.296875 51.753906 116.121094 50.96875 C 115.765625 49.359375 115.578125 47.601562 115.390625 45.898438 C 114.976562 42.101562 114.550781 38.171875 112.308594 35.328125 C 110.535156 33.09375 108.097656 31.847656 104.855469 31.527344 C 102.144531 31.257812 98.960938 31.683594 95.390625 32.789062 C 93.667969 33.328125 91.804688 33.992188 89.851562 34.769531 C 84.773438 36.785156 79.792969 39.273438 74.972656 41.683594 L 66.765625 45.78125 C 62.277344 48.023438 57.0625 50.464844 51.957031 51.121094 C 49.882812 51.378906 48.109375 51.265625 46.519531 50.769531 C 45.394531 50.421875 44.40625 49.882812 43.578125 49.179688 C 40.777344 46.789062 40.109375 42.96875 39.664062 39.261719 C 39.5 37.867188 39.34375 36.378906 39.179688 34.707031 C 38.535156 28.128906 37.765625 22.261719 34.921875 17 C 32.953125 13.371094 30 10.261719 26.378906 8.015625 C 23.070312 5.976562 19.300781 4.660156 15.472656 4.210938 C 7.671875 3.289062 -1.101562 5.925781 -7.425781 11.089844 L -7.625 10.847656 C -1.238281 5.628906 7.628906 2.964844 15.511719 3.898438 C 19.382812 4.355469 23.195312 5.6875 26.542969 7.75 C 30.214844 10.023438 33.207031 13.171875 35.199219 16.847656 C 38.078125 22.164062 38.847656 28.066406 39.496094 34.675781 C 39.664062 36.347656 39.820312 37.832031 39.984375 39.226562 C 40.421875 42.871094 41.074219 46.625 43.789062 48.941406 C 44.585938 49.617188 45.539062 50.132812 46.621094 50.472656 C 48.164062 50.949219 49.898438 51.0625 51.925781 50.8125 C 56.980469 50.160156 62.171875 47.730469 66.636719 45.503906 L 74.84375 41.402344 C 79.664062 38.992188 84.652344 36.5 89.742188 34.476562 C 91.699219 33.695312 93.570312 33.03125 95.304688 32.488281 C 98.910156 31.371094 102.136719 30.941406 104.890625 31.214844 C 108.21875 31.542969 110.726562 32.828125 112.554688 35.132812 C 114.855469 38.046875 115.285156 42.019531 115.703125 45.863281 C 115.886719 47.554688 116.074219 49.308594 116.425781 50.898438 C 116.597656 51.671875 116.796875 52.359375 117.03125 52.992188 C 118.738281 57.621094 121.8125 59.65625 125.066406 61.808594 C 126.566406 62.804688 128.125 63.832031 129.597656 65.152344 C 130.804688 66.230469 131.800781 67.347656 132.648438 68.574219 C 134.019531 70.554688 135.019531 72.859375 136.078125 75.292969 C 137.777344 79.207031 139.53125 83.253906 142.929688 85.773438 C 148.507812 89.90625 156.183594 87.964844 161.515625 84.769531 C 164.058594 83.242188 166.4375 81.367188 168.742188 79.554688 C 170.886719 77.867188 173.105469 76.121094 175.460938 74.648438 C 176.148438 74.21875 176.84375 73.820312 177.519531 73.464844 C 183.261719 70.417969 191.5625 69.527344 196.316406 73.695312 C 197.554688 74.78125 198.445312 76.082031 199.304688 77.339844 C 200.175781 78.613281 201.070312 79.929688 202.34375 81.03125 C 206.300781 84.464844 213.0625 84.46875 217.703125 82.699219 C 222.457031 80.894531 225.949219 77.773438 229.324219 74.753906 L 229.683594 74.429688 L 229.894531 74.667969 L 229.53125 74.992188 C 226.492188 77.707031 223.363281 80.507812 219.292969 82.375 Z M 219.289062 82.371094 " fill-opacity="1" fill-rule="nonzero"/></g></g></g><g clip-path="url(#529f709453)"><g clip-path="url(#b04c19ff2d)"><g clip-path="url(#588cce3dbe)"><path fill="#ca94f8" d="M 219.265625 83.386719 C 218.511719 83.734375 217.726562 84.054688 216.902344 84.335938 C 212.394531 85.890625 205.617188 86.019531 201.375 82.628906 C 200.066406 81.585938 199.113281 80.351562 198.191406 79.160156 C 197.300781 78.003906 196.375 76.808594 195.140625 75.824219 C 190.457031 72.078125 182.398438 72.972656 176.855469 75.789062 C 176.191406 76.125 175.515625 76.5 174.828125 76.910156 C 172.53125 78.285156 170.339844 79.917969 168.21875 81.496094 C 165.871094 83.246094 163.441406 85.058594 160.851562 86.527344 C 155.472656 89.574219 147.730469 91.367188 142.128906 87.253906 C 138.5 84.589844 136.675781 80.308594 134.914062 76.167969 C 133.949219 73.90625 133.039062 71.765625 131.855469 69.890625 C 131.082031 68.664062 130.171875 67.515625 129.074219 66.371094 C 127.78125 65.023438 126.425781 63.921875 125.117188 62.855469 C 122.113281 60.410156 119.269531 58.09375 117.703125 53.246094 C 117.488281 52.59375 117.316406 51.890625 117.160156 51.09375 C 116.863281 49.5625 116.699219 47.894531 116.539062 46.285156 C 116.152344 42.375 115.753906 38.332031 113.519531 35.367188 C 111.785156 33.085938 109.398438 31.75 106.210938 31.28125 C 103.5 30.882812 100.304688 31.171875 96.726562 32.144531 C 94.980469 32.617188 93.097656 33.222656 91.125 33.953125 C 86 35.84375 80.96875 38.273438 76.109375 40.625 L 67.832031 44.632812 C 63.082031 46.925781 58.027344 49.222656 52.949219 49.929688 C 50.867188 50.21875 49.082031 50.136719 47.496094 49.667969 C 46.355469 49.332031 45.359375 48.808594 44.53125 48.101562 C 41.800781 45.769531 41.210938 42.039062 40.804688 38.097656 L 40.675781 36.792969 C 40.566406 35.699219 40.460938 34.609375 40.347656 33.535156 C 39.648438 26.585938 38.582031 20.933594 35.667969 15.933594 C 33.582031 12.359375 30.539062 9.328125 26.867188 7.167969 C 23.519531 5.210938 19.714844 3.957031 15.867188 3.546875 C 8.023438 2.699219 -0.613281 5.199219 -7.21875 10.234375 L -7.410156 9.980469 C -0.738281 4.898438 7.976562 2.375 15.902344 3.230469 C 19.792969 3.648438 23.644531 4.914062 27.027344 6.894531 C 30.746094 9.082031 33.828125 12.152344 35.9375 15.773438 C 38.882812 20.820312 39.957031 26.511719 40.660156 33.5 C 40.773438 34.574219 40.878906 35.667969 40.988281 36.757812 L 41.117188 38.066406 C 41.519531 41.9375 42.097656 45.601562 44.738281 47.855469 C 45.53125 48.535156 46.488281 49.039062 47.585938 49.363281 C 49.128906 49.816406 50.871094 49.898438 52.910156 49.613281 C 57.9375 48.914062 62.972656 46.628906 67.695312 44.347656 L 75.972656 40.339844 C 80.84375 37.984375 85.878906 35.546875 91.019531 33.652344 C 92.996094 32.921875 94.890625 32.3125 96.644531 31.835938 C 100.269531 30.855469 103.503906 30.566406 106.257812 30.96875 C 109.53125 31.445312 111.988281 32.824219 113.769531 35.171875 C 116.058594 38.207031 116.464844 42.296875 116.855469 46.25 C 117.023438 47.929688 117.175781 49.511719 117.472656 51.027344 C 117.621094 51.808594 117.796875 52.5 118.003906 53.140625 C 119.539062 57.902344 122.347656 60.183594 125.316406 62.601562 C 126.632812 63.671875 127.992188 64.78125 129.300781 66.140625 C 130.414062 67.300781 131.335938 68.46875 132.121094 69.710938 C 133.316406 71.605469 134.230469 73.753906 135.199219 76.03125 C 136.949219 80.132812 138.753906 84.375 142.316406 86.988281 C 147.796875 91.015625 155.40625 89.238281 160.699219 86.242188 C 163.269531 84.785156 165.691406 82.980469 168.035156 81.230469 C 170.15625 79.648438 172.351562 78.011719 174.667969 76.628906 C 175.359375 76.21875 176.046875 75.835938 176.714844 75.5 C 182.347656 72.636719 190.550781 71.742188 195.335938 75.566406 C 196.601562 76.574219 197.539062 77.785156 198.441406 78.960938 C 199.351562 80.136719 200.292969 81.355469 201.574219 82.378906 C 205.722656 85.695312 212.375 85.558594 216.800781 84.03125 C 221.457031 82.429688 224.957031 79.671875 228.34375 77.003906 L 228.875 76.585938 L 229.066406 76.832031 L 228.535156 77.25 C 225.722656 79.464844 222.828125 81.746094 219.261719 83.382812 Z M 219.265625 83.386719 " fill-opacity="1" fill-rule="nonzero"/></g></g></g><g clip-path="url(#62fca33d3e)"><g clip-path="url(#4955c2f9e1)"><g clip-path="url(#e8e152d7f5)"><path fill="#ca94f8" d="M 219.488281 84.34375 C 218.386719 84.851562 217.230469 85.300781 216 85.679688 C 211.414062 87.09375 204.886719 87.121094 200.625 83.996094 C 199.308594 83.035156 198.316406 81.902344 197.359375 80.808594 C 196.371094 79.683594 195.441406 78.621094 194.179688 77.714844 C 189.242188 74.140625 181.320312 75.277344 176.058594 77.835938 C 175.398438 78.15625 174.722656 78.515625 174.039062 78.898438 C 171.785156 80.1875 169.617188 81.714844 167.523438 83.1875 C 165.132812 84.871094 162.660156 86.609375 160.042969 88.007812 C 153.121094 91.703125 146.203125 91.875 141.53125 88.480469 C 137.710938 85.707031 135.835938 81.203125 134.027344 76.84375 C 133.160156 74.761719 132.34375 72.792969 131.328125 71.027344 C 130.621094 69.789062 129.78125 68.589844 128.769531 67.355469 C 127.644531 65.988281 126.492188 64.832031 125.375 63.710938 C 122.648438 60.980469 120.070312 58.402344 118.679688 53.398438 C 118.496094 52.742188 118.34375 52.03125 118.210938 51.230469 C 117.972656 49.792969 117.839844 48.300781 117.699219 46.726562 C 117.339844 42.691406 116.96875 38.519531 114.738281 35.417969 C 113.046875 33.082031 110.703125 31.648438 107.570312 31.042969 C 104.859375 30.511719 101.660156 30.667969 98.0625 31.5 C 96.292969 31.910156 94.390625 32.460938 92.40625 33.136719 C 87.222656 34.902344 82.148438 37.277344 77.242188 39.574219 L 68.890625 43.488281 C 64.105469 45.722656 59.011719 47.96875 53.941406 48.738281 C 51.839844 49.058594 50.046875 49.003906 48.46875 48.566406 C 47.316406 48.246094 46.3125 47.726562 45.484375 47.023438 C 42.597656 44.554688 42.234375 40.332031 41.941406 36.941406 C 41.808594 35.363281 41.667969 33.820312 41.515625 32.359375 C 40.9375 26.820312 39.882812 20.410156 36.40625 14.863281 C 34.203125 11.347656 31.074219 8.390625 27.359375 6.320312 C 23.921875 4.414062 20.191406 3.257812 16.261719 2.875 C 8.492188 2.113281 -0.210938 4.546875 -7.019531 9.375 L -7.199219 9.121094 C -0.335938 4.246094 8.449219 1.796875 16.292969 2.566406 C 20.261719 2.949219 24.035156 4.121094 27.507812 6.046875 C 31.269531 8.144531 34.441406 11.136719 36.671875 14.695312 C 40.199219 20.332031 41.277344 27.078125 41.824219 32.328125 C 41.976562 33.789062 42.121094 35.335938 42.253906 36.914062 C 42.542969 40.25 42.898438 44.398438 45.683594 46.785156 C 46.480469 47.460938 47.441406 47.957031 48.554688 48.265625 C 50.085938 48.691406 51.832031 48.746094 53.894531 48.429688 C 58.921875 47.664062 63.992188 45.429688 68.757812 43.203125 L 77.109375 39.289062 C 82.027344 36.988281 87.105469 34.609375 92.300781 32.839844 C 94.296875 32.15625 96.210938 31.605469 97.988281 31.191406 C 101.628906 30.347656 104.875 30.195312 107.628906 30.730469 C 110.839844 31.355469 113.25 32.828125 114.984375 35.230469 C 117.269531 38.398438 117.644531 42.617188 118.007812 46.695312 C 118.148438 48.265625 118.277344 49.75 118.511719 51.175781 C 118.644531 51.96875 118.792969 52.667969 118.976562 53.3125 C 120.339844 58.238281 122.890625 60.785156 125.585938 63.484375 C 126.710938 64.609375 127.871094 65.773438 129.003906 67.152344 C 130.027344 68.398438 130.875 69.613281 131.59375 70.871094 C 132.617188 72.652344 133.4375 74.628906 134.308594 76.722656 C 136.105469 81.039062 137.957031 85.5 141.707031 88.226562 C 146.277344 91.546875 153.078125 91.359375 159.886719 87.730469 C 162.488281 86.34375 164.953125 84.609375 167.335938 82.933594 C 169.4375 81.453125 171.609375 79.925781 173.878906 78.628906 C 174.566406 78.238281 175.25 77.878906 175.914062 77.554688 C 181.253906 74.953125 189.316406 73.8125 194.359375 77.460938 C 195.648438 78.390625 196.632812 79.515625 197.585938 80.601562 C 198.535156 81.683594 199.515625 82.800781 200.808594 83.742188 C 204.980469 86.804688 211.394531 86.773438 215.902344 85.382812 C 220.4375 83.992188 223.941406 81.585938 227.332031 79.261719 L 228.070312 78.757812 L 228.246094 79.015625 L 227.511719 79.519531 C 225.019531 81.230469 222.464844 82.976562 219.484375 84.347656 Z M 219.488281 84.34375 " fill-opacity="1" fill-rule="nonzero"/></g></g></g><g clip-path="url(#fe19011750)"><g clip-path="url(#9e0bb3a609)"><g clip-path="url(#0cf3c86f06)"><path fill="#ca94f8" d="M 220.140625 85.179688 C 218.574219 85.898438 216.910156 86.535156 215.085938 87.027344 C 210.582031 88.25 204.128906 88.210938 199.867188 85.359375 C 198.546875 84.484375 197.519531 83.453125 196.523438 82.457031 C 195.484375 81.421875 194.503906 80.4375 193.21875 79.605469 C 188.273438 76.390625 180.519531 77.46875 175.355469 79.839844 C 175.320312 79.855469 175.289062 79.871094 175.253906 79.886719 C 174.597656 80.1875 173.921875 80.53125 173.246094 80.898438 C 171.035156 82.097656 168.902344 83.515625 166.835938 84.882812 C 164.398438 86.5 161.878906 88.167969 159.230469 89.496094 C 152.359375 92.929688 145.515625 93.011719 140.925781 89.710938 C 136.894531 86.8125 134.972656 82.046875 133.113281 77.441406 C 132.355469 75.566406 131.644531 73.796875 130.800781 72.167969 C 130.144531 70.90625 129.402344 69.6875 128.460938 68.339844 C 127.519531 66.992188 126.570312 65.8125 125.648438 64.675781 C 123.191406 61.632812 120.871094 58.757812 119.652344 53.550781 C 119.496094 52.886719 119.367188 52.171875 119.257812 51.363281 C 119.074219 50.03125 118.96875 48.667969 118.855469 47.21875 C 118.527344 43.039062 118.191406 38.714844 115.957031 35.464844 C 114.304688 33.074219 112.007812 31.550781 108.933594 30.800781 C 106.222656 30.140625 103.015625 30.160156 99.402344 30.859375 C 97.613281 31.207031 95.691406 31.699219 93.6875 32.328125 C 88.457031 33.964844 83.335938 36.285156 78.382812 38.527344 L 69.960938 42.34375 C 65.140625 44.523438 60.007812 46.722656 54.941406 47.554688 C 52.816406 47.90625 51.019531 47.878906 49.453125 47.472656 C 48.285156 47.171875 47.269531 46.660156 46.445312 45.949219 C 43.628906 43.539062 43.355469 39.613281 43.089844 35.816406 C 42.988281 34.246094 42.855469 32.699219 42.691406 31.195312 C 41.898438 23.769531 40.144531 18.246094 37.164062 13.804688 C 34.84375 10.347656 31.625 7.46875 27.863281 5.484375 C 24.386719 3.664062 20.621094 2.566406 16.671875 2.222656 C 8.984375 1.546875 0.210938 3.90625 -6.796875 8.53125 L -6.96875 8.269531 C 0.09375 3.605469 8.945312 1.226562 16.699219 1.90625 C 20.695312 2.253906 24.5 3.367188 28.011719 5.207031 C 31.820312 7.214844 35.078125 10.128906 37.425781 13.628906 C 40.4375 18.113281 42.207031 23.683594 43.003906 31.164062 C 43.167969 32.671875 43.300781 34.21875 43.402344 35.769531 C 43.664062 39.527344 43.929688 43.390625 46.648438 45.714844 C 47.4375 46.390625 48.410156 46.882812 49.53125 47.171875 C 51.054688 47.566406 52.808594 47.59375 54.890625 47.25 C 59.917969 46.421875 65.027344 44.230469 69.832031 42.058594 L 78.253906 38.242188 C 83.214844 35.992188 88.34375 33.667969 93.59375 32.023438 C 95.609375 31.394531 97.542969 30.894531 99.34375 30.550781 C 103 29.84375 106.253906 29.824219 109.007812 30.496094 C 112.160156 31.265625 114.515625 32.828125 116.210938 35.285156 C 118.496094 38.605469 118.835938 42.972656 119.164062 47.191406 C 119.277344 48.636719 119.382812 50 119.566406 51.320312 C 119.675781 52.121094 119.804688 52.824219 119.957031 53.480469 C 121.15625 58.613281 123.351562 61.335938 125.890625 64.480469 C 126.8125 65.625 127.769531 66.808594 128.71875 68.164062 C 129.667969 69.523438 130.414062 70.75 131.078125 72.027344 C 131.929688 73.671875 132.644531 75.445312 133.402344 77.328125 C 135.242188 81.894531 137.148438 86.617188 141.105469 89.460938 C 145.597656 92.691406 152.316406 92.605469 159.089844 89.21875 C 161.722656 87.902344 164.234375 86.238281 166.664062 84.628906 C 168.734375 83.253906 170.878906 81.835938 173.097656 80.625 C 173.785156 80.257812 174.464844 79.914062 175.125 79.605469 C 175.15625 79.589844 175.191406 79.574219 175.222656 79.5625 C 180.460938 77.15625 188.34375 76.070312 193.386719 79.347656 C 194.703125 80.199219 195.742188 81.238281 196.746094 82.242188 C 197.730469 83.226562 198.75 84.246094 200.046875 85.109375 C 204.226562 87.898438 210.574219 87.9375 215.011719 86.730469 C 219.410156 85.542969 222.90625 83.492188 226.285156 81.503906 C 226.617188 81.3125 226.941406 81.117188 227.273438 80.925781 L 227.433594 81.195312 C 227.101562 81.386719 226.773438 81.582031 226.441406 81.773438 C 224.4375 82.953125 222.394531 84.152344 220.144531 85.1875 Z M 220.140625 85.179688 " fill-opacity="1" fill-rule="nonzero"/><path fill="#ca94f8" d="M 221.925781 85.628906 C 219.566406 86.710938 217.054688 87.703125 214.179688 88.371094 C 208.769531 89.636719 202.859375 88.988281 199.113281 86.726562 C 197.792969 85.929688 196.730469 85.003906 195.707031 84.109375 C 194.613281 83.152344 193.578125 82.253906 192.253906 81.492188 C 187.214844 78.578125 179.683594 79.613281 174.453125 81.929688 C 173.796875 82.21875 173.125 82.539062 172.449219 82.886719 C 170.292969 84 168.195312 85.308594 166.160156 86.574219 C 163.675781 88.121094 161.101562 89.722656 158.410156 90.980469 C 155.132812 92.496094 146.820312 95.5625 140.320312 90.9375 C 136.039062 87.894531 134.074219 82.824219 132.175781 77.921875 C 131.542969 76.289062 130.945312 74.753906 130.273438 73.300781 C 129.519531 71.683594 128.746094 70.320312 128.152344 69.316406 C 127.414062 68.058594 126.679688 66.921875 125.96875 65.820312 C 123.664062 62.257812 121.671875 59.183594 120.625 53.691406 C 120.496094 53.023438 120.390625 52.300781 120.300781 51.488281 C 120.171875 50.289062 120.089844 49.0625 120.003906 47.769531 C 119.710938 43.421875 119.414062 38.925781 117.171875 35.5 C 115.558594 33.050781 113.308594 31.433594 110.292969 30.546875 C 107.585938 29.753906 104.367188 29.636719 100.738281 30.203125 C 98.925781 30.488281 96.980469 30.921875 94.960938 31.5 C 89.683594 33.007812 84.515625 35.273438 79.511719 37.464844 L 71.015625 41.191406 C 66.15625 43.3125 60.988281 45.464844 55.929688 46.363281 C 53.78125 46.742188 51.980469 46.746094 50.421875 46.367188 C 49.238281 46.082031 48.21875 45.578125 47.390625 44.867188 C 44.632812 42.503906 44.429688 38.660156 44.234375 34.941406 L 44.21875 34.625 C 44.140625 33.089844 44.019531 31.542969 43.851562 30.015625 C 43.070312 22.878906 41.125 17.222656 37.898438 12.734375 C 35.460938 9.332031 32.15625 6.53125 28.347656 4.628906 C 24.832031 2.890625 21.039062 1.851562 17.0625 1.550781 C 9.351562 0.949219 0.726562 3.179688 -6.601562 7.667969 L -6.765625 7.402344 C 0.613281 2.878906 9.308594 0.632812 17.082031 1.238281 C 21.101562 1.546875 24.9375 2.59375 28.484375 4.351562 C 32.339844 6.273438 35.6875 9.113281 38.152344 12.554688 C 41.410156 17.09375 43.375 22.792969 44.164062 29.988281 C 44.328125 31.515625 44.453125 33.074219 44.53125 34.613281 L 44.546875 34.929688 C 44.738281 38.582031 44.933594 42.359375 47.59375 44.632812 C 48.394531 45.320312 49.34375 45.789062 50.492188 46.066406 C 52.007812 46.433594 53.765625 46.429688 55.871094 46.054688 C 60.894531 45.160156 66.042969 43.019531 70.886719 40.902344 L 79.382812 37.179688 C 84.390625 34.988281 89.570312 32.71875 94.871094 31.203125 C 96.902344 30.621094 98.855469 30.183594 100.683594 29.898438 C 104.359375 29.324219 107.621094 29.445312 110.371094 30.253906 C 113.464844 31.160156 115.769531 32.820312 117.425781 35.332031 C 119.71875 38.824219 120.019531 43.359375 120.308594 47.746094 C 120.394531 49.039062 120.476562 50.261719 120.605469 51.453125 C 120.695312 52.261719 120.800781 52.972656 120.925781 53.632812 C 121.964844 59.066406 123.9375 62.121094 126.226562 65.65625 C 126.941406 66.757812 127.675781 67.894531 128.417969 69.160156 C 129.015625 70.171875 129.792969 71.542969 130.550781 73.171875 C 131.230469 74.628906 131.828125 76.171875 132.460938 77.8125 C 134.347656 82.667969 136.292969 87.691406 140.496094 90.683594 C 146.859375 95.214844 155.046875 92.191406 158.273438 90.695312 C 160.945312 89.449219 163.511719 87.855469 165.988281 86.3125 C 168.027344 85.042969 170.136719 83.730469 172.304688 82.613281 C 172.980469 82.261719 173.660156 81.9375 174.320312 81.648438 C 179.625 79.296875 187.269531 78.253906 192.40625 81.226562 C 193.753906 82 194.847656 82.957031 195.90625 83.875 C 196.921875 84.761719 197.976562 85.679688 199.273438 86.460938 C 202.949219 88.683594 208.769531 89.316406 214.105469 88.066406 C 218.351562 87.082031 221.8125 85.375 225.15625 83.722656 C 225.59375 83.507812 226.03125 83.292969 226.464844 83.082031 L 226.601562 83.363281 C 226.167969 83.578125 225.734375 83.789062 225.292969 84.003906 C 224.191406 84.550781 223.078125 85.097656 221.925781 85.628906 Z M 221.925781 85.628906 " fill-opacity="1" fill-rule="nonzero"/></g></g></g><g clip-path="url(#237362b220)"><g clip-path="url(#561ac2bf42)"><g clip-path="url(#3374419345)"><path fill="#ca94f8" d="M 225.78125 85.539062 C 225.214844 85.761719 224.644531 85.992188 224.070312 86.222656 C 220.769531 87.550781 217.359375 88.925781 213.269531 89.722656 C 209.039062 90.550781 202.894531 90.554688 198.359375 88.097656 C 197.042969 87.386719 195.953125 86.566406 194.898438 85.769531 C 193.742188 84.898438 192.652344 84.078125 191.289062 83.386719 C 186.824219 81.117188 179.898438 81.347656 173.648438 83.984375 C 172.996094 84.257812 172.324219 84.5625 171.652344 84.886719 C 169.554688 85.914062 167.492188 87.113281 165.5 88.273438 C 162.957031 89.757812 160.332031 91.285156 157.59375 92.46875 C 150.722656 95.445312 144.207031 95.335938 139.710938 92.171875 C 135.148438 88.957031 133.148438 83.527344 131.210938 78.28125 C 130.714844 76.9375 130.246094 75.671875 129.742188 74.449219 C 129.085938 72.871094 128.421875 71.484375 127.847656 70.304688 C 127.34375 69.265625 126.84375 68.292969 126.363281 67.359375 C 124.28125 63.289062 122.484375 59.777344 121.597656 53.851562 C 121.5 53.183594 121.414062 52.457031 121.347656 51.628906 C 121.261719 50.589844 121.207031 49.539062 121.148438 48.421875 C 120.90625 43.878906 120.652344 39.179688 118.390625 35.554688 C 116.8125 33.046875 114.609375 31.335938 111.652344 30.316406 C 108.945312 29.386719 105.726562 29.132812 102.074219 29.570312 C 100.242188 29.785156 98.28125 30.164062 96.242188 30.695312 C 90.910156 32.082031 85.695312 34.289062 80.648438 36.425781 L 72.078125 40.050781 C 66.980469 42.203125 61.988281 44.214844 56.925781 45.179688 C 54.753906 45.59375 52.945312 45.621094 51.402344 45.277344 C 50.203125 45.007812 49.179688 44.507812 48.347656 43.796875 C 45.636719 41.476562 45.511719 37.695312 45.382812 34.039062 L 45.363281 33.476562 C 45.3125 31.941406 45.199219 30.390625 45.027344 28.855469 C 44.253906 21.972656 42.109375 16.191406 38.652344 11.675781 C 36.09375 8.332031 32.703125 5.609375 28.847656 3.792969 C 25.296875 2.136719 21.46875 1.160156 17.464844 0.890625 C 9.851562 0.375 1.160156 2.535156 -6.386719 6.820312 L -6.542969 6.546875 C 1.054688 2.234375 9.8125 0.0585938 17.484375 0.578125 C 21.53125 0.851562 25.398438 1.835938 28.976562 3.507812 C 32.878906 5.34375 36.3125 8.105469 38.898438 11.484375 C 42.390625 16.042969 44.554688 21.875 45.339844 28.816406 C 45.511719 30.355469 45.625 31.917969 45.675781 33.464844 L 45.695312 34.027344 C 45.820312 37.617188 45.945312 41.328125 48.550781 43.558594 C 49.355469 44.246094 50.3125 44.707031 51.46875 44.96875 C 52.972656 45.304688 54.742188 45.273438 56.867188 44.871094 C 61.898438 43.914062 66.878906 41.910156 71.957031 39.765625 L 80.527344 36.136719 C 85.578125 33.996094 90.808594 31.78125 96.164062 30.394531 C 98.210938 29.859375 100.191406 29.476562 102.035156 29.257812 C 105.730469 28.816406 109 29.074219 111.75 30.019531 C 114.777344 31.0625 117.035156 32.820312 118.652344 35.390625 C 120.957031 39.082031 121.214844 43.824219 121.457031 48.40625 C 121.515625 49.519531 121.574219 50.570312 121.660156 51.605469 C 121.726562 52.429688 121.808594 53.148438 121.90625 53.804688 C 122.78125 59.683594 124.570312 63.175781 126.640625 67.21875 C 127.121094 68.15625 127.617188 69.128906 128.128906 70.171875 C 128.703125 71.351562 129.371094 72.742188 130.03125 74.332031 C 130.539062 75.554688 131.007812 76.828125 131.503906 78.175781 C 133.421875 83.378906 135.40625 88.761719 139.890625 91.914062 C 144.296875 95.019531 150.703125 95.113281 157.472656 92.183594 C 160.1875 91.011719 162.808594 89.484375 165.34375 88.003906 C 167.339844 86.84375 169.40625 85.640625 171.519531 84.609375 C 172.195312 84.28125 172.867188 83.976562 173.527344 83.699219 C 179.859375 81.03125 186.890625 80.800781 191.433594 83.113281 C 192.816406 83.8125 193.96875 84.679688 195.085938 85.519531 C 196.132812 86.308594 197.214844 87.121094 198.511719 87.820312 C 202.972656 90.242188 209.03125 90.230469 213.210938 89.414062 C 217.269531 88.625 220.667969 87.257812 223.953125 85.933594 C 224.53125 85.703125 225.101562 85.472656 225.667969 85.25 L 225.785156 85.539062 Z M 225.78125 85.539062 " fill-opacity="1" fill-rule="nonzero"/><path fill="#ca94f8" d="M 224.957031 87.710938 C 224.21875 87.9375 223.476562 88.171875 222.722656 88.410156 C 219.523438 89.417969 216.21875 90.460938 212.359375 91.0625 C 208.191406 91.714844 202.128906 91.636719 197.605469 89.457031 C 196.304688 88.832031 195.191406 88.117188 194.117188 87.425781 C 192.890625 86.636719 191.734375 85.890625 190.328125 85.277344 C 185.828125 83.292969 178.964844 83.589844 172.84375 86.027344 C 172.195312 86.289062 171.527344 86.574219 170.859375 86.878906 C 168.820312 87.8125 166.808594 88.910156 164.863281 89.964844 C 162.257812 91.378906 159.5625 92.839844 156.78125 93.949219 C 152.777344 95.550781 145.152344 97.605469 139.105469 93.394531 C 134.203125 89.980469 132.089844 83.855469 130.222656 78.449219 C 129.878906 77.449219 129.554688 76.507812 129.210938 75.582031 C 128.730469 74.277344 128.257812 73.09375 127.800781 71.949219 L 127.535156 71.28125 C 127.324219 70.746094 127.117188 70.230469 126.914062 69.722656 C 124.890625 64.675781 123.289062 60.683594 122.570312 53.992188 C 122.496094 53.324219 122.4375 52.59375 122.390625 51.753906 C 122.34375 50.914062 122.3125 50.070312 122.277344 49.175781 C 122.09375 44.398438 121.894531 39.453125 119.601562 35.59375 C 118.058594 33.019531 115.902344 31.210938 113.003906 30.066406 C 110.308594 29 107.078125 28.609375 103.40625 28.914062 C 101.550781 29.070312 99.570312 29.390625 97.515625 29.871094 C 92.136719 31.128906 86.871094 33.28125 81.78125 35.363281 L 73.140625 38.898438 C 68.238281 40.898438 63.023438 42.941406 57.914062 43.984375 C 55.679688 44.429688 53.917969 44.488281 52.371094 44.167969 C 51.148438 43.910156 50.140625 43.4375 49.296875 42.710938 C 46.628906 40.425781 46.566406 36.695312 46.511719 33.085938 C 46.507812 32.824219 46.503906 32.566406 46.496094 32.304688 C 46.472656 30.769531 46.367188 29.214844 46.191406 27.675781 C 45.410156 20.925781 43.125 15.179688 39.394531 10.601562 C 36.714844 7.316406 33.238281 4.667969 29.335938 2.941406 C 25.753906 1.367188 21.890625 0.453125 17.855469 0.222656 C 10.246094 -0.21875 1.707031 1.820312 -6.183594 5.957031 L -6.328125 5.679688 C 1.613281 1.511719 10.207031 -0.535156 17.875 -0.09375 C 21.945312 0.140625 25.84375 1.066406 29.460938 2.652344 C 33.410156 4.402344 36.929688 7.082031 39.636719 10.402344 C 43.40625 15.03125 45.71875 20.828125 46.503906 27.640625 C 46.683594 29.191406 46.785156 30.757812 46.808594 32.304688 C 46.8125 32.5625 46.820312 32.824219 46.824219 33.085938 C 46.878906 36.621094 46.9375 40.277344 49.496094 42.472656 C 50.300781 43.160156 51.261719 43.617188 52.433594 43.859375 C 53.9375 44.171875 55.660156 44.113281 57.851562 43.675781 C 62.929688 42.636719 68.125 40.601562 73.015625 38.605469 L 81.65625 35.070312 C 86.757812 32.984375 92.03125 30.832031 97.4375 29.566406 C 99.507812 29.082031 101.503906 28.757812 103.375 28.601562 C 107.09375 28.292969 110.371094 28.6875 113.113281 29.773438 C 116.078125 30.945312 118.285156 32.796875 119.863281 35.433594 C 122.199219 39.363281 122.394531 44.347656 122.582031 49.167969 C 122.621094 50.058594 122.652344 50.902344 122.699219 51.742188 C 122.746094 52.570312 122.804688 53.300781 122.875 53.960938 C 123.597656 60.613281 125.1875 64.582031 127.199219 69.609375 C 127.402344 70.117188 127.613281 70.632812 127.824219 71.167969 L 128.085938 71.835938 C 128.542969 72.980469 129.015625 74.167969 129.5 75.476562 C 129.839844 76.40625 130.167969 77.351562 130.511719 78.347656 C 132.359375 83.710938 134.457031 89.78125 139.277344 93.140625 C 145.203125 97.269531 152.707031 95.238281 156.65625 93.664062 C 159.421875 92.554688 162.109375 91.101562 164.703125 89.691406 C 166.660156 88.632812 168.675781 87.539062 170.71875 86.597656 C 171.394531 86.289062 172.066406 86 172.71875 85.742188 C 178.914062 83.269531 185.871094 82.976562 190.441406 84.992188 C 191.871094 85.617188 193.09375 86.402344 194.273438 87.164062 C 195.34375 87.851562 196.445312 88.5625 197.726562 89.175781 C 201.457031 90.972656 207.039062 91.578125 212.296875 90.753906 C 216.132812 90.15625 219.425781 89.117188 222.613281 88.109375 C 223.367188 87.871094 224.109375 87.636719 224.851562 87.410156 L 224.941406 87.710938 Z M 224.957031 87.710938 " fill-opacity="1" fill-rule="nonzero"/><path fill="#ca94f8" d="M 224.132812 89.882812 C 223.167969 90.09375 222.214844 90.316406 221.203125 90.550781 C 218.164062 91.261719 215.015625 91.992188 211.449219 92.410156 C 206.132812 93.035156 200.679688 92.441406 196.851562 90.824219 C 195.574219 90.289062 194.453125 89.679688 193.367188 89.089844 C 192.0625 88.382812 190.832031 87.714844 189.367188 87.167969 C 184.761719 85.445312 178.125 85.792969 172.042969 88.082031 C 171.394531 88.324219 170.730469 88.59375 170.066406 88.878906 C 168.101562 89.726562 166.144531 90.710938 164.25 91.664062 C 161.574219 93.011719 158.804688 94.402344 155.964844 95.441406 C 149.105469 97.949219 142.902344 97.660156 138.5 94.628906 C 133.1875 90.96875 131.074219 84.28125 129.207031 78.382812 C 129.03125 77.824219 128.855469 77.269531 128.683594 76.726562 C 128.464844 76.050781 128.25 75.398438 128.042969 74.765625 C 127.757812 73.898438 127.484375 73.066406 127.230469 72.273438 C 125.339844 66.269531 124.0625 61.765625 123.542969 54.148438 C 123.496094 53.488281 123.460938 52.75 123.433594 51.894531 C 123.417969 51.304688 123.402344 50.707031 123.390625 50.101562 C 123.28125 45.269531 123.160156 39.789062 120.8125 35.644531 C 119.304688 33.003906 117.195312 31.097656 114.359375 29.828125 C 111.667969 28.621094 108.429688 28.097656 104.738281 28.277344 C 102.863281 28.367188 100.859375 28.632812 98.789062 29.066406 C 93.351562 30.195312 88.042969 32.292969 82.910156 34.316406 L 74.195312 37.757812 C 69.050781 39.785156 64.011719 41.691406 58.902344 42.800781 C 56.640625 43.285156 54.875 43.371094 53.339844 43.078125 C 52.105469 42.835938 51.089844 42.371094 50.246094 41.644531 C 47.609375 39.382812 47.621094 35.695312 47.632812 32.125 C 47.636719 31.800781 47.632812 31.476562 47.632812 31.160156 C 47.632812 29.625 47.539062 28.058594 47.359375 26.515625 C 46.585938 19.972656 44.085938 14.101562 40.140625 9.542969 C 37.34375 6.320312 33.78125 3.746094 29.828125 2.105469 C 26.214844 0.613281 22.324219 -0.242188 18.253906 -0.433594 C 10.769531 -0.792969 2.164062 1.175781 -5.976562 5.113281 L -6.109375 4.832031 C 2.078125 0.875 10.734375 -1.109375 18.269531 -0.746094 C 22.375 -0.550781 26.304688 0.3125 29.949219 1.816406 C 33.949219 3.480469 37.550781 6.082031 40.378906 9.34375 C 44.371094 13.949219 46.890625 19.875 47.671875 26.480469 C 47.855469 28.039062 47.949219 29.613281 47.949219 31.164062 C 47.953125 31.484375 47.949219 31.808594 47.949219 32.132812 C 47.9375 35.628906 47.925781 39.246094 50.453125 41.410156 C 51.253906 42.101562 52.222656 42.546875 53.40625 42.773438 C 54.898438 43.058594 56.625 42.976562 58.84375 42.5 C 63.925781 41.398438 68.957031 39.492188 74.085938 37.472656 L 82.800781 34.03125 C 87.949219 32 93.269531 29.902344 98.730469 28.765625 C 100.816406 28.328125 102.835938 28.058594 104.726562 27.96875 C 108.472656 27.785156 111.753906 28.316406 114.492188 29.546875 C 117.351562 30.828125 119.570312 32.828125 121.089844 35.492188 C 123.476562 39.707031 123.597656 45.226562 123.707031 50.097656 C 123.722656 50.703125 123.734375 51.300781 123.75 51.886719 C 123.777344 52.738281 123.808594 53.46875 123.855469 54.128906 C 124.375 61.714844 125.648438 66.199219 127.53125 72.179688 C 127.78125 72.972656 128.054688 73.800781 128.339844 74.667969 C 128.546875 75.300781 128.761719 75.957031 128.980469 76.632812 C 129.15625 77.179688 129.332031 77.730469 129.507812 78.292969 C 131.359375 84.144531 133.453125 90.777344 138.675781 94.375 C 144.503906 98.386719 151.941406 96.582031 155.855469 95.152344 C 158.679688 94.117188 161.4375 92.730469 164.105469 91.386719 C 166.003906 90.433594 167.96875 89.449219 169.9375 88.59375 C 170.609375 88.308594 171.277344 88.039062 171.925781 87.792969 C 178.078125 85.480469 184.796875 85.132812 189.472656 86.878906 C 190.957031 87.433594 192.199219 88.105469 193.511719 88.820312 C 194.59375 89.40625 195.707031 90.011719 196.972656 90.542969 C 200.75 92.136719 206.148438 92.722656 211.410156 92.105469 C 214.960938 91.695312 218.097656 90.960938 221.128906 90.253906 C 222.140625 90.019531 223.09375 89.796875 224.058594 89.585938 L 224.128906 89.894531 Z M 224.132812 89.882812 " fill-opacity="1" fill-rule="nonzero"/></g></g></g><g clip-path="url(#6657746d76)"><g clip-path="url(#4cdf7b1cd7)"><g clip-path="url(#cfb1696921)"><path fill="#ca94f8" d="M 223.308594 92.058594 C 222.03125 92.226562 220.769531 92.425781 219.433594 92.628906 C 216.632812 93.0625 213.738281 93.511719 210.542969 93.757812 C 205.226562 94.167969 199.960938 93.601562 196.097656 92.191406 C 194.863281 91.742188 193.753906 91.242188 192.675781 90.757812 C 191.269531 90.128906 189.949219 89.53125 188.40625 89.058594 C 183.695312 87.597656 177.277344 88 171.242188 90.128906 C 170.597656 90.355469 169.933594 90.605469 169.273438 90.871094 C 167.386719 91.632812 165.492188 92.507812 163.664062 93.359375 C 160.910156 94.636719 158.058594 95.960938 155.148438 96.925781 C 150.339844 98.519531 143.445312 99.632812 137.894531 95.855469 C 132.070312 91.886719 130.007812 84.488281 128.183594 77.960938 L 128.15625 77.863281 C 127.710938 76.269531 127.285156 74.722656 126.929688 73.253906 C 125.371094 66.757812 124.734375 61.796875 124.515625 54.296875 C 124.496094 53.644531 124.484375 52.925781 124.484375 52.023438 L 124.480469 51.242188 C 124.472656 46.0625 124.457031 40.191406 122.035156 35.6875 C 120.585938 33.007812 118.460938 30.953125 115.726562 29.578125 C 113.039062 28.230469 109.796875 27.578125 106.078125 27.625 C 104.183594 27.652344 102.160156 27.863281 100.074219 28.246094 C 94.589844 29.25 89.230469 31.289062 84.050781 33.261719 L 75.265625 36.609375 C 70.082031 38.574219 65.011719 40.441406 59.90625 41.609375 C 58.46875 41.933594 56.328125 42.324219 54.324219 41.972656 C 53.074219 41.753906 52.054688 41.292969 51.203125 40.5625 C 48.597656 38.324219 48.679688 34.667969 48.757812 31.132812 C 48.761719 30.75 48.773438 30.371094 48.777344 29.996094 C 48.800781 28.457031 48.71875 26.890625 48.53125 25.339844 C 47.75 18.890625 45.105469 13.058594 40.886719 8.472656 C 37.976562 5.3125 34.320312 2.8125 30.324219 1.253906 C 26.683594 -0.160156 22.753906 -0.949219 18.652344 -1.105469 C 9.238281 -1.46875 0.179688 1.605469 -5.765625 4.246094 L -5.894531 3.960938 C 0.0820312 1.304688 9.191406 -1.785156 18.667969 -1.421875 C 22.804688 -1.261719 26.765625 -0.464844 30.4375 0.957031 C 34.484375 2.535156 38.175781 5.058594 41.121094 8.257812 C 45.386719 12.890625 48.058594 18.785156 48.84375 25.296875 C 49.035156 26.863281 49.121094 28.441406 49.09375 29.996094 C 49.089844 30.371094 49.082031 30.75 49.070312 31.132812 C 48.996094 34.597656 48.917969 38.179688 51.410156 40.320312 C 52.214844 41.011719 53.1875 41.449219 54.382812 41.65625 C 56.324219 42 58.425781 41.617188 59.835938 41.296875 C 64.925781 40.132812 69.984375 38.269531 75.15625 36.304688 L 83.941406 32.960938 C 89.136719 30.984375 94.503906 28.941406 100.019531 27.925781 C 102.125 27.539062 104.164062 27.328125 106.078125 27.304688 C 109.84375 27.25 113.136719 27.917969 115.867188 29.289062 C 118.664062 30.691406 120.832031 32.789062 122.3125 35.527344 C 124.777344 40.105469 124.789062 46.015625 124.800781 51.230469 L 124.804688 52.011719 C 124.804688 52.910156 124.816406 53.628906 124.835938 54.277344 C 125.054688 61.753906 125.683594 66.695312 127.238281 73.167969 C 127.589844 74.632812 128.019531 76.179688 128.460938 77.769531 L 128.488281 77.871094 C 130.300781 84.34375 132.347656 91.6875 138.078125 95.589844 C 143.519531 99.292969 150.3125 98.195312 155.054688 96.621094 C 157.945312 95.660156 160.789062 94.339844 163.539062 93.066406 C 165.371094 92.214844 167.269531 91.339844 169.160156 90.574219 C 169.824219 90.308594 170.488281 90.058594 171.140625 89.828125 C 177.238281 87.675781 183.726562 87.273438 188.503906 88.753906 C 190.0625 89.230469 191.394531 89.828125 192.804688 90.464844 C 193.878906 90.945312 194.988281 91.445312 196.207031 91.890625 C 200.03125 93.28125 205.246094 93.84375 210.519531 93.4375 C 213.703125 93.195312 216.589844 92.746094 219.386719 92.3125 C 220.726562 92.105469 221.992188 91.914062 223.269531 91.738281 L 223.3125 92.050781 Z M 223.308594 92.058594 " fill-opacity="1" fill-rule="nonzero"/></g></g></g><g clip-path="url(#3c08087fc5)"><g clip-path="url(#952e67d67e)"><g clip-path="url(#b6277f30ab)"><path fill="#ca94f8" d="M 222.484375 94.226562 C 220.773438 94.316406 219.066406 94.457031 217.257812 94.601562 C 214.832031 94.796875 212.324219 95.003906 209.636719 95.101562 C 206.550781 95.21875 200.589844 95.167969 195.347656 93.558594 C 194.183594 93.199219 193.109375 92.8125 192.066406 92.429688 C 190.539062 91.875 189.09375 91.351562 187.445312 90.949219 C 182.691406 89.777344 176.332031 90.234375 170.4375 92.179688 C 169.796875 92.390625 169.136719 92.621094 168.480469 92.867188 C 166.683594 93.539062 164.871094 94.3125 163.113281 95.058594 C 160.261719 96.269531 157.316406 97.519531 154.335938 98.410156 C 147.5 100.449219 141.605469 99.988281 137.292969 97.085938 C 131.398438 93.117188 129.210938 85.667969 127.628906 79 C 127.179688 77.117188 126.863281 75.601562 126.628906 74.234375 C 125.46875 67.492188 125.425781 62.015625 125.492188 54.441406 C 125.496094 53.691406 125.511719 52.925781 125.53125 52.152344 C 125.640625 47.316406 125.789062 40.691406 123.25 35.730469 C 121.832031 32.972656 119.757812 30.820312 117.082031 29.332031 C 114.410156 27.84375 111.15625 27.054688 107.414062 26.980469 C 105.496094 26.941406 103.453125 27.09375 101.351562 27.429688 C 95.8125 28.3125 90.410156 30.289062 85.183594 32.210938 L 76.324219 35.460938 C 71.109375 37.371094 66.003906 39.1875 60.894531 40.421875 C 59.441406 40.765625 57.285156 41.191406 55.296875 40.875 C 54.035156 40.675781 53.007812 40.21875 52.152344 39.488281 C 49.570312 37.269531 49.71875 33.636719 49.867188 30.125 C 49.886719 29.691406 49.902344 29.261719 49.917969 28.84375 C 49.96875 27.296875 49.890625 25.722656 49.699219 24.171875 C 48.90625 17.785156 46.121094 11.988281 41.632812 7.410156 C 38.621094 4.3125 34.882812 1.894531 30.816406 0.410156 C 27.148438 -0.921875 23.191406 -1.65625 19.050781 -1.769531 C 11.660156 -1.980469 3.382812 -0.242188 -5.558594 3.394531 L -5.679688 3.105469 C 3.300781 -0.550781 11.625 -2.292969 19.058594 -2.082031 C 23.230469 -1.964844 27.222656 -1.226562 30.921875 0.113281 C 35.03125 1.609375 38.8125 4.058594 41.855469 7.1875 C 46.386719 11.816406 49.207031 17.671875 50.007812 24.128906 C 50.203125 25.699219 50.277344 27.285156 50.226562 28.847656 C 50.214844 29.269531 50.199219 29.699219 50.179688 30.132812 C 50.035156 33.570312 49.890625 37.125 52.355469 39.246094 C 53.164062 39.9375 54.140625 40.371094 55.34375 40.5625 C 57.277344 40.871094 59.394531 40.453125 60.820312 40.113281 C 65.910156 38.886719 71.007812 37.070312 76.214844 35.164062 L 85.074219 31.914062 C 90.3125 29.992188 95.730469 28 101.296875 27.117188 C 103.417969 26.777344 105.480469 26.625 107.417969 26.664062 C 111.210938 26.738281 114.511719 27.542969 117.230469 29.058594 C 119.960938 30.574219 122.082031 32.769531 123.527344 35.585938 C 126.101562 40.621094 125.949219 47.289062 125.84375 52.15625 C 125.824219 52.929688 125.808594 53.695312 125.804688 54.441406 C 125.738281 62 125.78125 67.460938 126.9375 74.175781 C 127.171875 75.535156 127.488281 77.046875 127.929688 78.925781 C 129.503906 85.535156 131.667969 92.914062 137.460938 96.820312 C 141.757812 99.714844 147.40625 100.144531 154.238281 98.105469 C 157.207031 97.21875 160.144531 95.972656 162.984375 94.765625 C 164.742188 94.015625 166.5625 93.242188 168.363281 92.566406 C 169.023438 92.324219 169.6875 92.085938 170.332031 91.875 C 176.285156 89.910156 182.707031 89.449219 187.511719 90.640625 C 189.171875 91.046875 190.625 91.574219 192.164062 92.128906 C 193.203125 92.503906 194.277344 92.898438 195.433594 93.25 C 200.628906 94.847656 206.546875 94.898438 209.617188 94.78125 C 212.296875 94.683594 214.800781 94.484375 217.226562 94.285156 C 219.035156 94.136719 220.75 94 222.460938 93.910156 L 222.476562 94.222656 Z M 222.484375 94.226562 " fill-opacity="1" fill-rule="nonzero"/></g></g></g><g clip-path="url(#ef26d2dfe3)"><g clip-path="url(#4bce4b91d7)"><g clip-path="url(#9b6de69fb9)"><path fill="#ca94f8" d="M 221.65625 96.394531 C 219.289062 96.332031 216.902344 96.367188 214.378906 96.402344 C 212.558594 96.429688 210.679688 96.457031 208.722656 96.445312 C 204.980469 96.429688 199.488281 96.152344 194.59375 94.917969 C 193.558594 94.660156 192.570312 94.378906 191.617188 94.109375 C 189.90625 93.625 188.292969 93.167969 186.488281 92.839844 C 181.621094 91.933594 175.480469 92.441406 169.636719 94.226562 C 169 94.421875 168.339844 94.636719 167.6875 94.859375 C 165.992188 95.445312 164.273438 96.113281 162.605469 96.757812 C 159.652344 97.898438 156.597656 99.082031 153.519531 99.894531 C 146.65625 101.710938 140.992188 101.175781 136.6875 98.308594 C 130.550781 94.226562 128.34375 86.449219 127.101562 80.136719 C 126.75 78.386719 126.488281 76.730469 126.324219 75.214844 C 125.695312 69.417969 125.960938 64.347656 126.269531 58.480469 C 126.335938 57.226562 126.402344 55.933594 126.464844 54.585938 C 126.484375 54.089844 126.511719 53.59375 126.535156 53.089844 L 126.574219 52.28125 C 126.851562 46.53125 126.785156 40.550781 124.464844 35.773438 C 123.082031 32.933594 121.058594 30.6875 118.441406 29.085938 C 115.777344 27.453125 112.519531 26.527344 108.75 26.328125 C 106.808594 26.226562 104.75 26.324219 102.628906 26.609375 C 97.039062 27.363281 91.589844 29.292969 86.316406 31.152344 L 77.386719 34.308594 C 72.136719 36.160156 66.996094 37.929688 61.886719 39.226562 C 60.292969 39.628906 58.214844 40.050781 56.273438 39.769531 C 55.019531 39.589844 53.957031 39.128906 53.109375 38.40625 C 50.542969 36.199219 50.761719 32.585938 50.976562 29.089844 C 51.003906 28.613281 51.035156 28.140625 51.054688 27.675781 C 51.128906 26.128906 51.066406 24.550781 50.871094 22.992188 C 50.082031 16.773438 47.066406 10.859375 42.382812 6.335938 C 39.253906 3.300781 35.425781 0.957031 31.3125 -0.441406 C 27.625 -1.6875 23.632812 -2.359375 19.453125 -2.4375 C 12.15625 -2.574219 4.042969 -0.949219 -5.347656 2.539062 L -5.457031 2.242188 C 3.972656 -1.257812 12.121094 -2.890625 19.460938 -2.75 C 23.671875 -2.671875 27.695312 -1.996094 31.414062 -0.734375 C 35.570312 0.675781 39.441406 3.042969 42.601562 6.117188 C 47.339844 10.683594 50.386719 16.664062 51.183594 22.957031 C 51.382812 24.53125 51.449219 26.128906 51.375 27.695312 C 51.351562 28.160156 51.324219 28.632812 51.292969 29.113281 C 51.085938 32.53125 50.871094 36.066406 53.320312 38.171875 C 54.128906 38.867188 55.113281 39.289062 56.324219 39.460938 C 58.214844 39.738281 60.25 39.320312 61.816406 38.929688 C 66.914062 37.636719 72.042969 35.867188 77.289062 34.019531 L 86.21875 30.863281 C 91.503906 28.996094 96.96875 27.0625 102.589844 26.304688 C 104.734375 26.015625 106.8125 25.921875 108.773438 26.023438 C 112.589844 26.222656 115.902344 27.164062 118.609375 28.820312 C 121.277344 30.449219 123.34375 32.746094 124.75 35.636719 C 127.101562 40.480469 127.171875 46.507812 126.890625 52.296875 L 126.851562 53.105469 C 126.828125 53.609375 126.800781 54.109375 126.78125 54.605469 C 126.71875 55.953125 126.648438 57.246094 126.582031 58.5 C 126.273438 64.351562 126.007812 69.414062 126.636719 75.183594 C 126.796875 76.6875 127.058594 78.335938 127.40625 80.074219 C 128.636719 86.328125 130.820312 94.027344 136.859375 98.050781 C 141.085938 100.863281 146.660156 101.382812 153.4375 99.589844 C 156.496094 98.78125 159.542969 97.601562 162.488281 96.464844 C 164.15625 95.820312 165.882812 95.152344 167.578125 94.5625 C 168.238281 94.335938 168.898438 94.121094 169.539062 93.925781 C 175.425781 92.125 181.621094 91.617188 186.539062 92.527344 C 188.355469 92.863281 189.980469 93.324219 191.695312 93.808594 C 192.648438 94.078125 193.632812 94.355469 194.664062 94.617188 C 199.53125 95.84375 204.992188 96.117188 208.71875 96.132812 C 210.667969 96.140625 212.546875 96.117188 214.367188 96.089844 C 216.894531 96.054688 219.285156 96.023438 221.65625 96.085938 L 221.648438 96.398438 Z M 221.65625 96.394531 " fill-opacity="1" fill-rule="nonzero"/></g></g></g><g clip-path="url(#0cd07b1b61)"><g clip-path="url(#a87c3eaa21)"><g clip-path="url(#d2a7758fdc)"><path fill="#ca94f8" d="M 220.835938 98.5625 C 217.390625 98.214844 213.867188 98.054688 210.140625 97.894531 C 209.375 97.859375 208.601562 97.824219 207.820312 97.789062 C 202.335938 97.535156 197.636719 97.03125 193.847656 96.28125 C 193.039062 96.125 192.257812 95.957031 191.488281 95.796875 C 189.484375 95.378906 187.59375 94.984375 185.527344 94.726562 C 180.535156 94.097656 174.609375 94.648438 168.832031 96.273438 C 168.199219 96.453125 167.542969 96.648438 166.890625 96.855469 C 165.3125 97.355469 163.703125 97.917969 162.140625 98.464844 C 159.066406 99.539062 155.882812 100.644531 152.707031 101.382812 C 145.800781 102.960938 140.363281 102.359375 136.082031 99.542969 C 131.121094 96.277344 128.007812 90.300781 126.578125 81.28125 C 126.296875 79.546875 126.113281 77.835938 126.027344 76.203125 C 125.773438 70.996094 126.28125 66.222656 126.816406 61.164062 C 127.035156 59.109375 127.261719 56.984375 127.445312 54.742188 C 127.503906 53.976562 127.570312 53.199219 127.625 52.417969 C 127.960938 47.832031 128.121094 41.121094 125.683594 35.820312 C 124.335938 32.898438 122.359375 30.550781 119.804688 28.84375 C 117.152344 27.070312 113.882812 26.007812 110.089844 25.6875 C 108.125 25.523438 106.046875 25.558594 103.90625 25.796875 C 98.269531 26.425781 92.769531 28.296875 87.457031 30.105469 L 78.449219 33.167969 C 73.160156 34.964844 67.988281 36.6875 62.882812 38.046875 C 61.273438 38.472656 59.179688 38.925781 57.25 38.679688 C 55.984375 38.519531 54.910156 38.066406 54.0625 37.335938 C 51.511719 35.144531 51.804688 31.542969 52.082031 28.0625 C 52.121094 27.542969 52.164062 27.03125 52.195312 26.527344 C 52.292969 24.972656 52.238281 23.390625 52.039062 21.832031 C 51.238281 15.671875 48.074219 9.792969 43.128906 5.28125 C 39.878906 2.304688 35.960938 0.0390625 31.804688 -1.277344 C 28.097656 -2.441406 24.070312 -3.054688 19.851562 -3.09375 C 12.695312 -3.160156 4.753906 -1.640625 -5.136719 1.6875 L -5.234375 1.394531 C 4.691406 -1.949219 12.664062 -3.472656 19.855469 -3.40625 C 24.109375 -3.367188 28.164062 -2.753906 31.902344 -1.574219 C 36.105469 -0.246094 40.0625 2.042969 43.34375 5.050781 C 48.34375 9.613281 51.542969 15.558594 52.351562 21.792969 C 52.558594 23.375 52.613281 24.976562 52.511719 26.550781 C 52.480469 27.054688 52.441406 27.570312 52.398438 28.089844 C 52.125 31.492188 51.84375 35.015625 54.269531 37.101562 C 55.085938 37.800781 56.070312 38.214844 57.292969 38.371094 C 59.167969 38.613281 61.222656 38.167969 62.804688 37.75 C 67.90625 36.398438 73.070312 34.671875 78.351562 32.878906 L 87.355469 29.816406 C 92.691406 28.003906 98.203125 26.128906 103.875 25.496094 C 106.035156 25.253906 108.136719 25.214844 110.117188 25.382812 C 113.964844 25.707031 117.285156 26.789062 119.984375 28.59375 C 122.585938 30.332031 124.601562 32.722656 125.972656 35.699219 C 128.441406 41.066406 128.277344 47.828125 127.941406 52.449219 C 127.882812 53.234375 127.820312 54.007812 127.753906 54.773438 C 127.570312 57.015625 127.347656 59.144531 127.128906 61.203125 C 126.59375 66.25 126.089844 71.011719 126.339844 76.195312 C 126.425781 77.8125 126.605469 79.511719 126.886719 81.234375 C 128.304688 90.167969 131.371094 96.070312 136.257812 99.285156 C 140.460938 102.054688 145.820312 102.640625 152.636719 101.082031 C 155.800781 100.347656 158.972656 99.242188 162.039062 98.171875 C 163.601562 97.628906 165.222656 97.0625 166.800781 96.5625 C 167.457031 96.355469 168.113281 96.160156 168.753906 95.980469 C 174.566406 94.34375 180.539062 93.789062 185.570312 94.421875 C 187.648438 94.683594 189.546875 95.078125 191.554688 95.5 C 192.320312 95.660156 193.105469 95.824219 193.910156 95.980469 C 197.683594 96.726562 202.367188 97.234375 207.832031 97.480469 C 208.617188 97.519531 209.390625 97.550781 210.15625 97.585938 C 213.886719 97.75 217.414062 97.90625 220.867188 98.257812 L 220.835938 98.570312 Z M 220.835938 98.5625 " fill-opacity="1" fill-rule="nonzero"/><path fill="#ca94f8" d="M 220.011719 100.730469 C 215.597656 99.953125 211.105469 99.503906 206.90625 99.132812 C 202.355469 98.734375 197.539062 98.289062 193.089844 97.644531 L 192.1875 97.515625 C 189.605469 97.136719 187.164062 96.785156 184.5625 96.613281 C 179.4375 96.265625 173.71875 96.855469 168.03125 98.320312 C 167.40625 98.484375 166.757812 98.65625 166.097656 98.847656 C 164.660156 99.261719 163.179688 99.722656 161.75 100.167969 C 158.527344 101.171875 155.199219 102.210938 151.890625 102.863281 C 145.050781 104.199219 139.683594 103.511719 135.480469 100.765625 C 129.035156 96.589844 126.792969 88.484375 126.050781 82.414062 C 125.832031 80.648438 125.722656 78.890625 125.726562 77.183594 C 125.75 72.230469 126.488281 67.648438 127.265625 62.792969 C 127.675781 60.25 128.101562 57.621094 128.421875 54.886719 C 128.523438 54 128.609375 53.253906 128.675781 52.546875 C 129.34375 45.710938 128.75 40.097656 126.902344 35.859375 C 125.589844 32.851562 123.660156 30.40625 121.167969 28.59375 C 118.535156 26.679688 115.257812 25.488281 111.429688 25.035156 C 109.433594 24.804688 107.332031 24.785156 105.1875 24.976562 C 99.5 25.480469 93.953125 27.292969 88.589844 29.046875 L 79.515625 32.011719 C 73.988281 33.816406 68.996094 35.425781 63.878906 36.847656 C 62.253906 37.296875 60.144531 37.785156 58.226562 37.566406 C 56.949219 37.425781 55.867188 36.984375 55.019531 36.25 C 52.484375 34.066406 52.839844 30.472656 53.183594 27 C 53.242188 26.445312 53.296875 25.894531 53.335938 25.359375 C 53.457031 23.796875 53.414062 22.214844 53.207031 20.648438 C 52.398438 14.539062 49.085938 8.699219 43.875 4.199219 C 40.507812 1.285156 36.5 -0.90625 32.296875 -2.136719 C 28.570312 -3.222656 24.515625 -3.769531 20.246094 -3.769531 C 11.382812 -3.769531 2.542969 -1.449219 -4.933594 0.820312 L -5.027344 0.519531 C 2.472656 -1.753906 11.339844 -4.082031 20.246094 -4.082031 C 24.542969 -4.085938 28.628906 -3.53125 32.382812 -2.4375 C 36.632812 -1.195312 40.675781 1.015625 44.078125 3.960938 C 49.347656 8.511719 52.699219 14.417969 53.515625 20.601562 C 53.726562 22.191406 53.769531 23.796875 53.648438 25.375 C 53.605469 25.914062 53.550781 26.464844 53.496094 27.027344 C 53.160156 30.421875 52.8125 33.929688 55.222656 36.007812 C 56.035156 36.707031 57.03125 37.117188 58.261719 37.25 C 60.125 37.460938 62.195312 36.980469 63.792969 36.542969 C 68.902344 35.125 73.894531 33.515625 79.417969 31.710938 L 88.496094 28.746094 C 93.875 26.988281 99.433594 25.167969 105.160156 24.660156 C 107.324219 24.46875 109.445312 24.488281 111.464844 24.722656 C 115.347656 25.175781 118.679688 26.394531 121.351562 28.335938 C 123.890625 30.179688 125.851562 32.667969 127.191406 35.730469 C 129.054688 40.019531 129.660156 45.683594 128.984375 52.574219 C 128.914062 53.285156 128.832031 54.03125 128.730469 54.921875 C 128.40625 57.660156 127.984375 60.292969 127.574219 62.839844 C 126.796875 67.679688 126.0625 72.253906 126.039062 77.179688 C 126.03125 78.878906 126.140625 80.621094 126.359375 82.375 C 127.097656 88.378906 129.308594 96.394531 135.652344 100.5 C 139.78125 103.195312 145.074219 103.871094 151.828125 102.554688 C 155.121094 101.902344 158.445312 100.867188 161.65625 99.867188 C 163.089844 99.417969 164.566406 98.957031 166.011719 98.542969 C 166.671875 98.355469 167.324219 98.175781 167.953125 98.015625 C 173.671875 96.542969 179.425781 95.945312 184.585938 96.296875 C 187.199219 96.46875 189.644531 96.824219 192.230469 97.199219 L 193.136719 97.328125 C 197.574219 97.96875 202.386719 98.414062 206.933594 98.816406 C 211.136719 99.1875 215.640625 99.640625 220.0625 100.417969 L 220.007812 100.726562 Z M 220.011719 100.730469 " fill-opacity="1" fill-rule="nonzero"/></g></g></g><g clip-path="url(#97e348cb45)"><g clip-path="url(#fd54725bc2)"><g clip-path="url(#3c832be2aa)"><path fill="#ca94f8" d="M 219.1875 102.898438 C 215.191406 101.910156 210.878906 101.117188 206 100.476562 C 201.277344 99.859375 196.445312 99.390625 192.339844 99.007812 C 189.808594 98.777344 186.792969 98.535156 183.605469 98.5 C 178.382812 98.445312 172.722656 99.09375 167.230469 100.371094 C 166.59375 100.519531 165.945312 100.679688 165.304688 100.84375 C 164.019531 101.175781 162.695312 101.542969 161.417969 101.894531 C 158.035156 102.824219 154.535156 103.789062 151.074219 104.351562 C 144.234375 105.457031 139.082031 104.710938 134.875 102 C 129.597656 98.613281 126.273438 92.066406 125.523438 83.558594 C 125.363281 81.761719 125.332031 79.953125 125.425781 78.171875 C 125.691406 73.308594 126.660156 68.761719 127.683594 63.945312 C 128.296875 61.0625 128.933594 58.082031 129.398438 55.042969 C 129.527344 54.195312 129.628906 53.425781 129.722656 52.679688 C 130.277344 48.152344 130.449219 41.570312 128.125 35.910156 C 126.84375 32.800781 124.964844 30.257812 122.535156 28.355469 C 119.925781 26.300781 116.640625 24.96875 112.769531 24.398438 C 110.757812 24.101562 108.640625 24.027344 106.472656 24.167969 C 100.730469 24.546875 95.140625 26.304688 89.734375 28 L 80.582031 30.871094 C 75.015625 32.617188 69.996094 34.183594 64.875 35.664062 C 63.234375 36.136719 61.113281 36.65625 59.207031 36.472656 C 57.914062 36.351562 56.828125 35.914062 55.972656 35.179688 C 53.449219 33.003906 53.875 29.417969 54.285156 25.945312 C 54.359375 25.34375 54.425781 24.769531 54.476562 24.207031 C 54.621094 22.640625 54.589844 21.050781 54.375 19.484375 C 53.554688 13.417969 50.09375 7.617188 44.625 3.144531 C 41.136719 0.289062 37.046875 -1.828125 32.792969 -2.972656 C 29 -3.992188 25.027344 -4.46875 20.644531 -4.425781 C 11.863281 -4.34375 2.945312 -2.113281 -4.722656 -0.03125 L -4.804688 -0.332031 C 2.882812 -2.421875 11.820312 -4.660156 20.644531 -4.742188 C 25.050781 -4.785156 29.050781 -4.304688 32.875 -3.277344 C 37.167969 -2.121094 41.300781 0.0117188 44.820312 2.898438 C 50.355469 7.421875 53.859375 13.296875 54.6875 19.441406 C 54.902344 21.035156 54.9375 22.644531 54.789062 24.234375 C 54.738281 24.804688 54.667969 25.402344 54.597656 25.984375 C 54.195312 29.371094 53.78125 32.875 56.175781 34.941406 C 56.992188 35.640625 57.992188 36.042969 59.234375 36.164062 C 61.089844 36.339844 63.175781 35.832031 64.785156 35.363281 C 69.898438 33.882812 74.921875 32.316406 80.484375 30.574219 L 89.636719 27.703125 C 95.0625 26 100.671875 24.238281 106.445312 23.855469 C 108.636719 23.710938 110.777344 23.789062 112.8125 24.085938 C 116.730469 24.667969 120.070312 26.019531 122.722656 28.109375 C 125.195312 30.046875 127.109375 32.632812 128.410156 35.792969 C 130.757812 41.515625 130.585938 48.15625 130.03125 52.722656 C 129.9375 53.46875 129.832031 54.246094 129.703125 55.09375 C 129.238281 58.140625 128.601562 61.125 127.988281 64.011719 C 126.96875 68.816406 126 73.351562 125.738281 78.191406 C 125.644531 79.957031 125.679688 81.753906 125.835938 83.53125 C 126.269531 88.402344 128.035156 97.242188 135.046875 101.738281 C 139.183594 104.402344 144.265625 105.136719 151.027344 104.042969 C 154.464844 103.484375 157.960938 102.523438 161.335938 101.59375 C 162.617188 101.238281 163.945312 100.875 165.226562 100.542969 C 165.867188 100.375 166.519531 100.21875 167.160156 100.070312 C 172.675781 98.785156 178.363281 98.132812 183.609375 98.1875 C 186.808594 98.222656 189.835938 98.464844 192.371094 98.699219 C 196.480469 99.078125 201.316406 99.550781 206.039062 100.167969 C 210.929688 100.8125 215.257812 101.605469 219.265625 102.597656 L 219.191406 102.898438 Z M 219.1875 102.898438 " fill-opacity="1" fill-rule="nonzero"/></g></g></g><g clip-path="url(#ef24e651d6)"><g clip-path="url(#a3a5715c90)"><g clip-path="url(#75a9ce3319)"><path fill="#ca94f8" d="M 218.367188 105.0625 C 200.945312 99.535156 182.324219 98.765625 164.507812 102.835938 C 163.410156 103.089844 162.296875 103.355469 161.171875 103.621094 C 151.796875 105.871094 142.105469 108.195312 134.265625 103.222656 C 126.253906 98.140625 124.289062 87.453125 125.121094 79.152344 C 125.609375 74.289062 126.867188 69.480469 128.085938 64.832031 C 129.109375 60.917969 130.167969 56.871094 130.765625 52.8125 C 131.503906 47.753906 132.316406 35.230469 123.886719 28.109375 C 119.917969 24.753906 114.183594 23.066406 107.742188 23.347656 C 101.953125 23.601562 96.3125 25.300781 90.859375 26.945312 L 65.863281 34.472656 C 62.746094 35.414062 59.25 36.101562 56.921875 34.097656 C 54.40625 31.929688 54.925781 28.183594 55.378906 24.875 C 55.46875 24.238281 55.550781 23.640625 55.613281 23.046875 C 57.027344 10.03125 45.371094 -0.835938 33.285156 -3.824219 C 20.625 -6.953125 7.269531 -3.734375 -4.515625 -0.890625 L -4.589844 -1.195312 C 7.230469 -4.046875 20.625 -7.273438 33.359375 -4.128906 C 39.605469 -2.585938 45.613281 1.039062 49.835938 5.820312 C 54.410156 10.992188 56.570312 17.117188 55.921875 23.078125 C 55.859375 23.675781 55.773438 24.277344 55.683594 24.914062 C 55.21875 28.300781 54.734375 31.800781 57.121094 33.859375 C 59.332031 35.761719 62.730469 35.085938 65.765625 34.167969 L 90.765625 26.640625 C 96.238281 24.992188 101.894531 23.289062 107.722656 23.03125 C 114.246094 22.742188 120.054688 24.460938 124.085938 27.863281 C 132.636719 35.089844 131.820312 47.746094 131.070312 52.855469 C 130.472656 56.929688 129.410156 60.984375 128.386719 64.90625 C 127.171875 69.546875 125.914062 74.34375 125.429688 79.183594 C 124.605469 87.394531 126.535156 97.949219 134.429688 102.960938 C 142.148438 107.859375 151.78125 105.550781 161.089844 103.316406 C 162.214844 103.046875 163.332031 102.78125 164.429688 102.53125 C 182.300781 98.445312 200.980469 99.21875 218.449219 104.765625 L 218.355469 105.0625 Z M 218.367188 105.0625 " fill-opacity="1" fill-rule="nonzero"/></g></g></g></svg>